<svg width="800" height="800" viewBox="0 0 800 800" fill="none" xmlns="http://www.w3.org/2000/svg">
<g clip-path="url(#clip0_42_343)">
<path d="M353.142 695.439C301.147 644.852 275.717 572.308 300.914 489.172H636.948H772.563C827.22 625.172 702.623 770.412 547.292 770.412C472.53 770.412 401.394 742.38 353.142 695.439Z" fill="#F9DCB2"/>
<path d="M413.914 695.439C361.919 644.852 336.489 572.308 361.686 489.172H300.916C275.719 572.308 301.147 644.852 353.144 695.439C401.397 742.38 472.531 770.414 547.294 770.414C557.111 770.414 566.803 769.83 576.337 768.708C513.469 762.006 455.28 735.681 413.914 695.439Z" fill="#B7966B"/>
<path d="M530.795 187.461C605.269 213.642 667.431 281.594 649.219 436.423C647.097 454.366 642.909 472.039 636.948 489.172H300.914C275.717 572.308 301.145 644.852 353.142 695.439C338.845 694.127 324.453 694.242 310.175 695.748C188.433 708.502 34.7797 581.839 17.6672 436.425C-0.546893 281.594 61.6172 213.642 136.091 187.461C161.037 178.702 184.672 176.966 206.3 179.589C290.825 189.853 376.062 189.853 460.569 179.589C482.216 176.966 505.83 178.702 530.795 187.461Z" fill="#65C723"/>
<path d="M147.892 436.423C129.68 281.594 191.842 213.642 266.316 187.461C268.327 186.755 270.323 186.112 272.316 185.495C250.278 184.214 228.264 182.256 206.298 179.589C184.67 176.966 161.036 178.702 136.089 187.461C61.6172 213.642 -0.546891 281.594 17.6672 436.423C34.7812 581.839 188.434 708.5 310.175 695.747C324.452 694.242 338.845 694.127 353.142 695.437C347.186 689.642 341.597 683.545 336.372 677.189C244.566 637.498 160.305 541.905 147.892 436.423Z" fill="#4F8F1B"/>
<path d="M598.969 444.998C598.403 444.998 597.834 444.966 597.259 444.898C589.322 443.964 583.644 436.773 584.58 428.836C601.103 288.386 538.873 261.351 518.422 252.467C511.092 249.284 507.731 240.759 510.914 233.43C514.097 226.1 522.622 222.739 529.952 225.922C564.586 240.967 589.119 266.445 602.867 301.648C616.216 335.825 619.636 378.533 613.319 432.216C612.455 439.578 606.205 444.998 598.969 444.998Z" fill="white"/>
<path d="M518.173 567.847L539.525 546.495C550.262 535.758 567.669 535.758 578.403 546.495L580.316 548.408C591.053 559.145 591.053 576.552 580.316 587.287L578.403 589.2C567.666 599.937 550.259 599.937 539.525 589.2L518.173 567.847Z" fill="#B27214"/>
<path d="M732.019 554.403H648.095C640.102 554.403 633.625 547.925 633.625 539.933C633.625 531.941 640.102 525.462 648.095 525.462H732.019C740.013 525.462 746.489 531.941 746.489 539.933C746.489 547.925 740.013 554.403 732.019 554.403Z" fill="white"/>
<path d="M471.569 554.403H422.375C414.381 554.403 407.905 547.925 407.905 539.933C407.905 531.941 414.381 525.462 422.375 525.462H471.569C479.562 525.462 486.039 531.941 486.039 539.933C486.039 547.925 479.559 554.403 471.569 554.403Z" fill="white"/>
<path d="M479.134 243.539C487.126 243.539 493.605 237.06 493.605 229.069C493.605 221.077 487.126 214.598 479.134 214.598C471.143 214.598 464.664 221.077 464.664 229.069C464.664 237.06 471.143 243.539 479.134 243.539Z" fill="white"/>
<path d="M785.994 483.775C783.791 478.294 778.477 474.702 772.567 474.702H656.511C659.773 462.522 662.153 450.278 663.58 438.117C684.061 264.045 605.283 198.309 535.584 173.814C510.433 164.981 484.603 162.091 458.825 165.228C420.452 169.887 381.828 172.37 343.186 172.733C339.688 146.42 334.334 68.5234 388.278 42.6297C395.483 39.1718 398.52 30.5281 395.064 23.3234C391.605 16.1172 382.952 13.0828 375.758 16.5406C339.928 33.739 318.347 69.2484 313.347 119.233C311.223 140.484 312.525 159.966 313.998 172.606C278.591 171.947 243.217 169.502 208.052 165.23C182.273 162.094 156.445 164.983 131.289 173.817C61.5938 198.312 -17.1859 264.048 3.29847 438.119C11.736 509.867 52.5297 582.119 115.216 636.35C170.258 683.97 235.513 711.083 293.389 711.083C299.578 711.083 305.686 710.772 311.684 710.145C323.372 708.916 335.214 708.702 346.995 709.473C397.848 756.708 471.064 784.889 547.297 784.889C633.444 784.889 716.145 741.706 763.127 672.191C802.417 614.055 810.753 545.38 785.994 483.775ZM308.664 681.361C254.364 687.048 189.142 662.036 134.15 614.461C76.8641 564.902 39.6469 499.395 32.0391 434.736C17.3922 310.25 54.0125 231.648 140.881 201.119C161.802 193.772 183.219 191.362 204.561 193.956C290.077 204.342 376.8 204.341 462.317 193.956C483.658 191.359 505.075 193.77 525.994 201.116C612.864 231.647 649.488 310.247 634.838 434.736C633.281 448 630.441 461.402 626.416 474.7H300.922C294.547 474.7 288.923 478.872 287.073 484.973C266.186 553.884 277.245 622.247 318.211 677.47C318.95 678.466 319.723 679.436 320.48 680.42C316.53 680.639 312.589 680.947 308.664 681.361ZM739.152 655.983C697.478 717.642 623.966 755.947 547.3 755.947C464.128 755.947 385.252 719.272 341.456 660.231C317.561 628.023 293.742 575.212 311.911 503.644H762.505C779.678 554.337 771.528 608.077 739.152 655.983Z" fill="#333333"/>
<path d="M588.638 536.264C572.275 519.902 545.653 519.905 529.292 536.264L507.942 557.616C502.291 563.267 502.291 572.43 507.942 578.078L529.292 599.43C537.217 607.356 547.755 611.722 558.964 611.722C570.175 611.722 580.709 607.356 588.638 599.43L590.55 597.517C606.909 581.158 606.909 554.538 590.55 538.175L588.638 536.264ZM570.083 577.056L568.17 578.969C565.713 581.428 562.442 582.783 558.964 582.783C555.486 582.783 552.217 581.428 549.759 578.969L538.639 567.848L549.759 556.728C554.836 551.655 563.097 551.652 568.174 556.728L570.086 558.641C575.161 563.719 575.161 571.978 570.083 577.056Z" fill="#333333"/>
</g>
<defs>
<clipPath id="clip0_42_343">
<rect width="800" height="800" fill="white"/>
</clipPath>
</defs>
</svg>
