<!DOCTYPE svg PUBLIC "-//W3C//DTD SVG 1.1//EN" "http://www.w3.org/Graphics/SVG/1.1/DTD/svg11.dtd">
<!-- Uploaded to: SVG Repo, www.svgrepo.com, Transformed by: SVG Repo Mixer Tools -->
<svg height="800px" width="800px" version="1.1" id="Layer_1" xmlns="http://www.w3.org/2000/svg" xmlns:xlink="http://www.w3.org/1999/xlink" viewBox="0 0 512 512" xml:space="preserve" fill="#000000">
<g id="SVGRepo_bgCarrier" stroke-width="0"/>
<g id="SVGRepo_tracerCarrier" stroke-linecap="round" stroke-linejoin="round"/>
<g id="SVGRepo_iconCarrier"> <path style="fill:#F9DCB2;" d="M226.011,445.081c-33.277-32.376-49.552-78.804-33.426-132.011h215.062h86.793 c34.981,87.04-44.761,179.994-144.173,179.994C302.419,493.064,256.892,475.123,226.011,445.081z"/> <path style="fill:#DDBB8E;" d="M264.905,445.081c-33.277-32.376-49.552-78.804-33.426-132.011h-38.893 c-16.126,53.207,0.148,99.635,33.426,132.011c30.882,30.042,76.408,47.984,124.256,47.984c6.283,0,12.486-0.374,18.588-1.092 C328.62,487.684,291.379,470.836,264.905,445.081z"/> <path style="fill:#ffd500;" d="M339.709,119.975c47.663,16.756,87.447,60.245,75.791,159.336 c-1.358,11.483-4.038,22.794-7.853,33.759H192.585c-16.126,53.207,0.148,99.635,33.426,132.011 c-9.15-0.84-18.361-0.766-27.499,0.198c-77.915,8.162-176.253-72.902-187.205-165.967C-0.35,180.22,39.435,136.731,87.098,119.975 c15.966-5.606,31.092-6.717,44.934-5.038c54.096,6.569,108.648,6.569,162.732,0C308.618,113.258,323.731,114.369,339.709,119.975z"/> <path style="fill:#ddaf08;" d="M94.651,279.311c-11.656-99.091,28.128-142.58,75.791-159.336c1.287-0.452,2.565-0.863,3.84-1.258 c-14.104-0.82-28.193-2.073-42.251-3.78c-13.842-1.679-28.968-0.568-44.934,5.038C39.435,136.731-0.35,180.22,11.307,279.311 c10.953,93.066,109.291,174.129,187.205,165.967c9.137-0.963,18.349-1.037,27.499-0.198c-3.812-3.709-7.389-7.611-10.733-11.679 C156.522,407.999,102.595,346.819,94.651,279.311z"/> <path style="fill:#FFFFFF;" d="M383.34,284.799c-0.362,0-0.726-0.021-1.094-0.064c-5.08-0.598-8.714-5.2-8.115-10.28 c10.575-89.888-29.252-107.19-42.341-112.876c-4.691-2.037-6.842-7.493-4.805-12.184s7.493-6.842,12.184-4.805 c22.166,9.629,37.867,25.935,46.666,48.465c8.543,21.873,10.732,49.206,6.689,83.563C391.971,281.33,387.971,284.799,383.34,284.799 z"/> <path style="fill:#B27214;" d="M331.631,363.422l13.665-13.665c6.872-6.872,18.012-6.872,24.882,0l1.224,1.224 c6.872,6.872,6.872,18.012,0,24.883l-1.224,1.224c-6.872,6.872-18.012,6.872-24.882,0L331.631,363.422z"/> <g> <path style="fill:#FFFFFF;" d="M468.492,354.818h-53.711c-5.116,0-9.261-4.146-9.261-9.261s4.145-9.261,9.261-9.261h53.711 c5.116,0,9.261,4.146,9.261,9.261S473.608,354.818,468.492,354.818z"/> <path style="fill:#FFFFFF;" d="M301.804,354.818H270.32c-5.116,0-9.261-4.146-9.261-9.261s4.145-9.261,9.261-9.261h31.484 c5.116,0,9.261,4.146,9.261,9.261S306.918,354.818,301.804,354.818z"/> <circle style="fill:#FFFFFF;" cx="306.646" cy="146.604" r="9.261"/> </g> <g> <path style="fill:#333333;" d="M503.036,309.616c-1.41-3.508-4.811-5.807-8.593-5.807h-74.276 c2.088-7.795,3.611-15.631,4.524-23.414c13.108-111.406-37.31-153.477-81.917-169.154c-16.097-5.653-32.628-7.503-49.126-5.495 c-24.559,2.982-49.278,4.571-74.009,4.803c-2.239-16.84-5.665-66.694,28.859-83.266c4.611-2.213,6.555-7.745,4.343-12.356 c-2.214-4.612-7.752-6.554-12.356-4.341c-22.931,11.007-36.743,33.733-39.943,65.723c-1.359,13.601-0.526,26.069,0.417,34.159 c-22.661-0.422-45.3-1.987-67.806-4.721c-16.498-2.007-33.028-0.158-49.128,5.496c-44.605,15.677-95.024,57.748-81.914,169.153 c5.4,45.919,31.508,92.16,71.627,126.868c35.227,30.477,76.99,47.829,114.031,47.829c3.961,0,7.87-0.199,11.709-0.6 c7.48-0.787,15.059-0.924,22.599-0.43c32.546,30.23,79.404,48.266,128.193,48.266c55.134,0,108.063-27.637,138.131-72.127 C513.547,392.995,518.882,349.043,503.036,309.616z M197.545,436.071c-34.752,3.64-76.494-12.368-111.689-42.816 c-36.663-31.718-60.482-73.642-65.351-115.024c-9.374-79.671,14.063-129.976,69.659-149.515 c13.389-4.702,27.096-6.244,40.755-4.584c54.73,6.647,110.233,6.646,164.964,0c13.658-1.662,27.365-0.119,40.753,4.582 c55.597,19.54,79.036,69.844,69.66,149.517c-0.996,8.489-2.814,17.066-5.39,25.577H192.59c-4.08,0-7.679,2.67-8.863,6.575 c-13.368,44.103-6.29,87.855,19.928,123.198c0.473,0.637,0.968,1.258,1.452,1.888C202.579,435.609,200.057,435.806,197.545,436.071 z M473.057,419.829c-26.671,39.462-73.719,63.977-122.785,63.977c-53.23,0-103.711-23.472-131.74-61.258 c-15.293-20.613-30.537-54.412-18.909-100.216h288.38C498.994,354.776,493.778,389.169,473.057,419.829z"/> <path style="fill:#333333;" d="M376.728,343.209c-10.472-10.472-27.51-10.47-37.981,0l-13.664,13.665 c-3.617,3.617-3.617,9.481,0,13.096l13.664,13.665c5.072,5.073,11.816,7.867,18.99,7.867c7.175,0,13.917-2.794,18.991-7.867 l1.224-1.224c10.47-10.47,10.47-27.507,0-37.979L376.728,343.209z M364.853,369.316l-1.224,1.224 c-1.573,1.574-3.666,2.441-5.892,2.441s-4.318-0.867-5.891-2.441l-7.117-7.117l7.117-7.117c3.249-3.247,8.536-3.249,11.785,0 l1.224,1.224C368.103,360.78,368.103,366.066,364.853,369.316z"/> </g> </g>
</svg>