<svg width="166" height="800" viewBox="0 0 166 800" fill="none" xmlns="http://www.w3.org/2000/svg">
<path d="M48.2375 753.303C48.2375 772.531 63.825 788.119 83.0547 788.119C102.283 788.119 117.872 772.533 117.872 753.303V388.252H48.2406V753.303H48.2375Z" fill="#F59D40"/>
<path d="M141.795 159.673C141.795 191.759 124.134 213.069 94.9343 217.53V0H71.1719V217.53C41.9703 213.069 24.3109 191.759 24.3109 159.673V31.6859H0.548431V159.673C0.548431 204.944 28.4625 236.567 71.1719 241.488V376.369H36.3547V753.302C36.3547 779.05 57.3031 800 83.0531 800C108.803 800 129.752 779.052 129.752 753.302V376.369H94.9343V241.488C137.644 236.567 165.558 204.944 165.558 159.673V31.6859H141.795V159.673ZM105.987 753.302C105.987 765.948 95.6984 776.237 83.0516 776.237C70.4047 776.237 60.1156 765.948 60.1156 753.302V447.661H105.984V753.302H105.987ZM105.987 400.131V423.898H60.1187V400.131H71.1734H94.9359H105.987Z" fill="#311363"/>
</svg>
