<svg width="94" height="800" viewBox="0 0 94 800" fill="none" xmlns="http://www.w3.org/2000/svg">
<g clip-path="url(#clip0_28_265)">
<path d="M12.3141 753.303C12.3141 772.531 27.9031 788.119 47.1313 788.119C66.3609 788.119 81.9484 772.533 81.9484 753.303V388.252H12.3156L12.3141 753.303Z" fill="#F59D40"/>
<path d="M12.3141 11.8812V388.252C50.7703 388.252 81.9469 357.075 81.9469 318.619V81.5125C81.9484 43.0562 50.7719 11.8812 12.3141 11.8812Z" fill="#C9D6D6"/>
<path d="M93.8297 81.5125C93.8297 36.5672 57.2625 0 12.3141 0H0.4328V376.369V400.131V753.302C0.4328 779.05 21.3812 800 47.1312 800C72.8797 800 93.8312 779.052 93.8312 753.302V376.369H69.7812C84.625 361.598 93.8297 341.162 93.8297 318.617V81.5125ZM70.0671 753.302C70.0671 765.948 59.7781 776.237 47.1297 776.237C34.4828 776.237 24.1937 765.948 24.1937 753.302V447.661H70.064V753.302H70.0671ZM70.0671 400.131V423.898H24.1968V400.131H70.0671ZM70.0671 318.617C70.0671 346.391 50.3609 369.647 24.1968 375.142V24.9922C50.3609 30.4859 70.0671 53.7422 70.0671 81.5141V318.617Z" fill="#311363"/>
</g>
<defs>
<clipPath id="clip0_28_265">
<rect width="94" height="800" fill="white"/>
</clipPath>
</defs>
</svg>
