<!DOCTYPE svg PUBLIC "-//W3C//DTD SVG 1.1//EN" "http://www.w3.org/Graphics/SVG/1.1/DTD/svg11.dtd">
<!-- Uploaded to: SVG Repo, www.svgrepo.com, Transformed by: SVG Repo Mixer Tools -->
<svg version="1.1" id="Capa_1" xmlns="http://www.w3.org/2000/svg" xmlns:xlink="http://www.w3.org/1999/xlink" viewBox="-4.27 -4.27 69.54 69.54" xml:space="preserve" width="210px" height="210px" fill="#000000">
<g id="SVGRepo_bgCarrier" stroke-width="0"/>
<g id="SVGRepo_tracerCarrier" stroke-linecap="round" stroke-linejoin="round" stroke="#030303" stroke-width="2.684"> <g> <g> <polygon style="fill:#ffffff;" points="8.5,37 8.5,34.5 8.5,26 0,26 6,34 0,42 14.5,42 14.5,37 10.5,37 "/> <polygon style="fill:#ffffff;" points="61,26 52.5,26 52.5,34.5 52.5,37 50.5,37 45.5,37 45.5,42 61,42 55,34 "/> <rect x="10.5" y="19" style="fill:#ffffff;" width="40" height="16"/> </g> </g> </g>
<g id="SVGRepo_iconCarrier"> <g> <g> <polygon style="fill:#ffffff;" points="8.5,37 8.5,34.5 8.5,26 0,26 6,34 0,42 14.5,42 14.5,37 10.5,37 "/> <polygon style="fill:#ffffff;" points="61,26 52.5,26 52.5,34.5 52.5,37 50.5,37 45.5,37 45.5,42 61,42 55,34 "/> <rect x="10.5" y="19" style="fill:#ffffff;" width="40" height="16"/> </g> </g> </g>
</svg>