<svg width="324" height="512" viewBox="0 0 324 512" fill="none" xmlns="http://www.w3.org/2000/svg">
<path d="M7.65201 486.743C7.65201 496.492 15.554 504.394 25.303 504.394C29.56 504.394 33.464 502.886 36.513 500.378L36.56 500.338L310.348 269.236C314.02 266.002 316.349 261.277 316.349 256C316.349 250.677 313.98 245.92 310.255 242.683C310.151 242.595 36.561 11.661 36.561 11.661L36.514 11.621C33.465 9.112 29.562 7.605 25.304 7.605C15.555 7.605 7.65301 15.507 7.65301 25.256L7.65201 486.743Z" fill="#FF6A5E"/>
<path d="M300.113 201.07C300.049 201.015 75.726 11.661 75.726 11.661L75.679 11.621C72.63 9.112 68.726 7.605 64.469 7.605C64.446 7.605 64.402 7.605 64.402 7.605H25.303C29.56 7.605 33.464 9.113 36.513 11.621L36.56 11.661C36.56 11.661 44.568 18.42 57.839 29.623C125.806 86.993 259.466 199.814 296.309 230.912L300.207 227.623C303.879 224.389 306.208 219.664 306.208 214.387C306.207 209.065 303.838 204.307 300.113 201.07Z" fill="#FFF6DD"/>
<path d="M315.203 236.91C315.19 236.898 312.715 234.809 307.822 230.679C311.659 226.145 313.812 220.382 313.812 214.387C313.812 207.086 310.637 200.14 305.069 195.302C305.037 195.274 304.981 195.226 80.608 5.83L80.511 5.749C76.004 2.042 70.307 0 64.402 0H25.303C11.377 0 0.0469971 11.331 0.0469971 25.256V349.288H15.257V25.256C15.257 19.716 19.763 15.21 25.303 15.21C27.659 15.21 29.864 16 31.654 17.472L296.309 240.864C301.962 245.635 305.174 248.347 305.267 248.424C307.477 250.345 308.744 253.106 308.744 256.001C308.744 258.847 307.516 261.571 305.372 263.484L31.653 494.528C29.842 496.007 27.648 496.789 25.303 496.789C19.763 496.789 15.257 492.283 15.257 486.743V369.57H0.0469971V486.744C0.0469971 500.669 11.376 512 25.303 512C31.142 512 36.838 509.958 41.344 506.252L315.253 275.048L315.374 274.943C320.826 270.142 323.953 263.236 323.953 256C323.953 248.7 320.778 241.754 315.203 236.91ZM64.469 15.21C66.825 15.21 69.03 16 70.82 17.472C73.056 19.359 294.428 206.222 295.125 206.81C297.335 208.731 298.602 211.492 298.602 214.387C298.602 216.769 297.741 219.065 296.205 220.873L266.175 195.525C223.099 159.166 151.737 98.929 52.555 15.21H64.469Z" fill="#311363"/>
<path d="M63.1074 428.158L51.0644 438.323L60.8748 449.946L72.9179 439.782L63.1074 428.158Z" fill="#311363"/>
<path d="M87.2282 407.804L75.1852 417.968L84.9957 429.592L97.0387 419.427L87.2282 407.804Z" fill="#311363"/>
<path d="M111.353 387.441L99.31 397.606L109.12 409.229L121.163 399.065L111.353 387.441Z" fill="#311363"/>
<path d="M135.466 367.108L123.424 377.274L133.236 388.896L145.278 378.73L135.466 367.108Z" fill="#311363"/>
<path d="M159.592 346.728L147.549 356.893L157.359 368.517L169.403 358.351L159.592 346.728Z" fill="#311363"/>
<path d="M183.716 326.386L171.673 336.551L181.484 348.174L193.527 338.01L183.716 326.386Z" fill="#311363"/>
<path d="M207.841 305.983L195.798 316.148L205.609 327.771L217.652 317.607L207.841 305.983Z" fill="#311363"/>
<path d="M231.966 285.652L219.923 295.817L229.733 307.44L241.776 297.276L231.966 285.652Z" fill="#311363"/>
<path d="M256.096 265.257L244.053 275.422L253.864 287.045L265.907 276.881L256.096 265.257Z" fill="#311363"/>
<path d="M72.8932 72.1803L60.8517 62.0142L51.0404 73.6354L63.0818 83.8015L72.8932 72.1803Z" fill="#311363"/>
<path d="M97.0003 92.5499L84.9557 82.387L75.1474 94.0112L87.192 104.174L97.0003 92.5499Z" fill="#311363"/>
<path d="M121.14 112.913L109.097 102.748L99.2871 114.371L111.33 124.536L121.14 112.913Z" fill="#311363"/>
<path d="M145.265 133.275L133.22 123.109L123.41 134.732L135.455 144.898L145.265 133.275Z" fill="#311363"/>
<path d="M169.369 153.645L157.326 143.478L147.514 155.1L159.557 165.267L169.369 153.645Z" fill="#311363"/>
<path d="M193.528 173.996L181.488 163.831L171.676 175.453L183.716 185.618L193.528 173.996Z" fill="#311363"/>
<path d="M217.655 194.363L205.61 184.198L195.801 195.82L207.845 205.986L217.655 194.363Z" fill="#311363"/>
<path d="M241.783 214.72L229.742 204.555L219.93 216.177L231.971 226.342L241.783 214.72Z" fill="#311363"/>
<path d="M265.868 235.091L253.824 224.928L244.015 236.553L256.06 246.716L265.868 235.091Z" fill="#311363"/>
<path d="M280.205 267.063L290.012 255.441L277.97 245.279L268.162 256.901L280.205 267.063Z" fill="#311363"/>
<path d="M45.679 149.282H30.469V318.864H45.679V149.282Z" fill="white"/>
</svg>
