<svg width="508" height="800" viewBox="0 0 508 800" fill="none" xmlns="http://www.w3.org/2000/svg">
<path d="M12.8312 760.536C12.8312 775.769 25.1781 788.116 40.4109 788.116C47.0625 788.116 53.1625 785.759 57.9266 781.841L58 781.778L485.794 420.681C491.531 415.628 495.17 408.245 495.17 400C495.17 391.683 491.469 384.25 485.648 379.192C485.486 379.055 58.0016 18.2203 58.0016 18.2203L57.9281 18.1578C53.1641 14.2375 47.0656 11.8828 40.4125 11.8828C25.1797 11.8828 12.8328 24.2297 12.8328 39.4625L12.8312 760.536Z" fill="#F9F4E7"/>
<path d="M469.802 314.172C469.702 314.086 119.197 18.2203 119.197 18.2203L119.123 18.1578C114.359 14.2375 108.259 11.8828 101.608 11.8828C101.572 11.8828 101.503 11.8828 101.503 11.8828H40.4109C47.0625 11.8828 53.1625 14.2391 57.9266 18.1578L58 18.2203C58 18.2203 70.5125 28.7812 91.2485 46.2859C197.447 135.927 406.291 312.209 463.858 360.8L469.948 355.661C475.686 350.608 479.325 343.225 479.325 334.98C479.323 326.664 475.622 319.23 469.802 314.172Z" fill="#F9F4E7"/>
<path d="M493.38 370.172C493.359 370.153 489.492 366.889 481.847 360.436C487.842 353.352 491.206 344.347 491.206 334.98C491.206 323.572 486.245 312.719 477.545 305.159C477.495 305.116 477.408 305.041 126.825 9.10937L126.673 8.98281C119.631 3.19063 110.73 0 101.503 0H40.4109C18.6516 0 0.948425 17.7047 0.948425 39.4625V545.762H24.7141V39.4625C24.7141 30.8063 31.7547 23.7656 40.4109 23.7656C44.0922 23.7656 47.5375 25 50.3344 27.3L463.858 376.35C472.691 383.805 477.709 388.042 477.855 388.162C481.308 391.164 483.287 395.478 483.287 400.002C483.287 404.448 481.369 408.705 478.019 411.694L50.3328 772.7C47.5031 775.011 44.075 776.233 40.4109 776.233C31.7547 776.233 24.7141 769.192 24.7141 760.536V577.453H0.948425V760.537C0.948425 782.295 18.65 800 40.4109 800C49.5344 800 58.4344 796.809 65.475 791.019L493.458 429.763L493.647 429.598C502.166 422.097 507.052 411.306 507.052 400C507.052 388.594 502.091 377.741 493.38 370.172ZM101.608 23.7656C105.289 23.7656 108.734 25 111.531 27.3C115.025 30.2484 460.919 322.222 462.008 323.141C465.461 326.142 467.441 330.456 467.441 334.98C467.441 338.702 466.095 342.289 463.695 345.114L416.773 305.508C349.467 248.697 237.964 154.577 82.9922 23.7656H101.608Z" fill="#311363"/>
<path d="M99.4803 668.997L80.6631 684.879L95.9919 703.041L114.809 687.159L99.4803 668.997Z" fill="#311363"/>
<path d="M137.169 637.193L118.352 653.076L133.681 671.237L152.498 655.355L137.169 637.193Z" fill="#311363"/>
<path d="M174.864 605.377L156.047 621.259L171.376 639.421L190.193 623.539L174.864 605.377Z" fill="#311363"/>
<path d="M212.541 573.606L193.725 589.491L209.056 607.651L227.872 591.765L212.541 573.606Z" fill="#311363"/>
<path d="M250.238 541.762L231.42 557.645L246.749 575.807L265.567 559.924L250.238 541.762Z" fill="#311363"/>
<path d="M287.932 509.978L269.115 525.86L284.444 544.022L303.261 528.14L287.932 509.978Z" fill="#311363"/>
<path d="M325.627 478.099L306.81 493.981L322.139 512.143L340.956 496.261L325.627 478.099Z" fill="#311363"/>
<path d="M363.322 446.332L344.504 462.214L359.833 480.375L378.65 464.493L363.322 446.332Z" fill="#311363"/>
<path d="M401.026 414.464L382.208 430.346L397.537 448.508L416.354 432.626L401.026 414.464Z" fill="#311363"/>
<path d="M114.771 112.782L95.9558 96.8971L80.6256 115.055L99.4404 130.94L114.771 112.782Z" fill="#311363"/>
<path d="M152.438 144.609L133.618 128.73L118.293 146.893L137.113 162.772L152.438 144.609Z" fill="#311363"/>
<path d="M190.156 176.427L171.339 160.544L156.011 178.705L174.828 194.587L190.156 176.427Z" fill="#311363"/>
<path d="M227.851 208.242L209.031 192.358L193.704 210.519L212.523 226.403L227.851 208.242Z" fill="#311363"/>
<path d="M265.514 240.071L246.697 224.184L231.366 242.343L250.183 258.23L265.514 240.071Z" fill="#311363"/>
<path d="M303.263 271.869L284.449 255.986L269.118 274.145L287.932 290.029L303.263 271.869Z" fill="#311363"/>
<path d="M340.961 303.693L322.141 287.809L306.813 305.969L325.633 321.853L340.961 303.693Z" fill="#311363"/>
<path d="M378.661 335.501L359.847 319.617L344.516 337.776L363.33 353.66L378.661 335.501Z" fill="#311363"/>
<path d="M416.294 367.33L397.474 351.451L382.149 369.613L400.969 385.493L416.294 367.33Z" fill="#311363"/>
<path d="M438.695 417.286L454.019 399.127L435.203 383.248L419.879 401.407L438.695 417.286Z" fill="#311363"/>
<path d="M72.2484 233.253H48.4828V498.225H72.2484V233.253Z" fill="white"/>
</svg>
