<svg width="340" height="512" viewBox="0 0 340 512" fill="none" xmlns="http://www.w3.org/2000/svg">
<path d="M297.471 504.396C316.625 504.396 332.151 488.87 332.151 469.715C332.151 468.521 292.112 131.48 292.112 131.48H292.168V42.075C292.168 23.038 276.734 7.604 257.697 7.604H82.361C63.324 7.604 47.89 23.038 47.89 42.075V131.479C47.89 131.479 7.85101 468.521 7.85101 469.714C7.85101 488.869 23.377 504.395 42.531 504.395H297.471V504.396Z" fill="#34B6D0"/>
<path d="M292.166 131.48V42.075C292.166 23.038 276.732 7.604 257.695 7.604H82.361C63.324 7.604 47.89 23.038 47.89 42.075V131.479L292.166 131.48Z" fill="#C9D6D6"/>
<path d="M96.609 449.924C96.187 457.98 89.313 464.17 81.257 463.747C73.201 463.325 67.011 456.451 67.434 448.395L80.126 206.228C80.548 198.172 87.422 191.982 95.478 192.405C103.534 192.827 109.724 199.701 109.301 207.757L96.609 449.924Z" fill="#FF6A5E"/>
<path d="M184.608 449.326C184.608 457.393 178.068 463.934 170 463.934C161.933 463.934 155.392 457.394 155.392 449.326V206.827C155.392 198.76 161.932 192.219 170 192.219C178.067 192.219 184.608 198.759 184.608 206.827V449.326Z" fill="#FF6A5E"/>
<path d="M272.567 448.395C272.989 456.451 266.8 463.325 258.744 463.747C250.688 464.169 243.814 457.98 243.392 449.924L230.7 207.757C230.278 199.701 236.467 192.827 244.523 192.405C252.579 191.983 259.453 198.172 259.875 206.228L272.567 448.395Z" fill="#FF6A5E"/>
<path d="M299.77 131.496V42.075C299.77 18.875 280.895 0 257.695 0H82.361C59.161 0 40.286 18.875 40.286 42.075V131.029C0.244003 468.086 0.246002 469.1 0.246002 469.714C0.246002 493.031 19.214 511.999 42.53 511.999H89.906V496.791H42.53C27.718 496.791 15.644 484.836 15.456 470.068C16.533 460.141 41 253.936 54.644 139.083H89.906V123.875H55.495V42.075C55.495 27.26 67.548 15.208 82.362 15.208H257.697C272.512 15.208 284.564 27.261 284.564 42.075V123.875H283.552H110.182V139.083H285.357C285.94 143.994 286.543 149.069 287.163 154.291H192.855V169.499H288.969C302.911 286.907 323.557 460.968 324.544 470.068C324.355 484.836 312.282 496.791 297.471 496.791H110.182V512H297.471C320.787 512 339.755 493.032 339.755 469.715C339.755 469.101 339.754 468.06 299.77 131.496Z" fill="#311363"/>
<path d="M131.98 39.814H116.772V59.85H131.98V39.814Z" fill="#311363"/>
<path d="M177.634 39.814H162.426V59.85H177.634V39.814Z" fill="#311363"/>
<path d="M223.289 39.814H208.081V59.85H223.289V39.814Z" fill="#311363"/>
<path d="M154.802 79.233H139.594V99.269H154.802V79.233Z" fill="#311363"/>
<path d="M200.457 79.233H185.249V99.269H200.457V79.233Z" fill="#311363"/>
<path d="M246.111 79.233H230.903V99.269H246.111V79.233Z" fill="#311363"/>
<path d="M109.148 79.233H93.94V99.269H109.148V79.233Z" fill="#311363"/>
<path d="M95.875 184.812C83.548 184.168 73.171 193.638 72.533 205.83L59.839 447.998C59.199 460.228 68.628 470.7 80.858 471.341C81.252 471.362 81.643 471.371 82.033 471.371C93.846 471.371 103.583 462.125 104.2 450.321L116.894 208.153C117.534 195.925 108.105 185.452 95.875 184.812ZM101.707 207.359L89.013 449.527C88.812 453.375 85.541 456.364 81.653 456.155C77.796 455.953 74.824 452.651 75.024 448.794L87.718 206.626C87.912 202.904 90.979 199.989 94.698 199.989C94.824 199.989 94.95 199.992 95.077 199.999C98.934 200.2 101.908 203.502 101.707 207.359Z" fill="#311363"/>
<path d="M192.212 449.326V206.827C192.212 194.58 182.248 184.615 170 184.615C157.753 184.615 147.788 194.579 147.788 206.827V449.327C147.788 461.574 157.752 471.539 170 471.539C182.247 471.539 192.212 461.574 192.212 449.326ZM162.996 449.326V206.827C162.996 202.965 166.138 199.823 170 199.823C173.862 199.823 177.004 202.965 177.004 206.827V449.327C177.004 453.189 173.862 456.331 170 456.331C166.138 456.331 162.996 453.188 162.996 449.326Z" fill="#311363"/>
<path d="M257.967 471.372C258.356 471.372 258.749 471.362 259.142 471.342C271.372 470.701 280.801 460.229 280.161 447.999L267.467 205.832C266.829 193.639 256.473 184.16 244.125 184.813C231.895 185.454 222.466 195.926 223.106 208.156L235.8 450.322C236.417 462.126 246.153 471.372 257.967 471.372ZM244.921 199.998C245.048 199.991 245.174 199.988 245.3 199.988C249.02 199.988 252.086 202.903 252.28 206.626L264.974 448.793C265.175 452.65 262.202 455.952 258.345 456.154C254.477 456.367 251.185 453.374 250.985 449.526L238.291 207.359C238.092 203.502 241.066 200.2 244.921 199.998Z" fill="#311363"/>
</svg>
