<svg width="800" height="398" viewBox="0 0 800 398" fill="none" xmlns="http://www.w3.org/2000/svg">
<path d="M399.43 378.986C235.397 378.986 88.1147 281.364 24.2132 130.279C7.39601 90.5181 25.9955 44.6508 65.7559 27.8336C105.519 11.0164 151.386 29.6159 168.201 69.3763C254.798 274.119 546.506 273.311 631.499 67.3656C647.967 27.4584 693.659 8.4549 733.575 24.9257C773.483 41.3942 792.481 87.0979 776.01 127.003C714.011 277.244 567.015 378.986 399.43 378.986Z" fill="#FF7876"/>
<path d="M740.459 8.25045C691.417 -11.9845 635.061 11.447 614.826 60.4819C535.824 251.917 265.061 252.076 184.818 62.3507C164.102 13.3759 107.71 -9.49756 58.7303 11.2185C9.87097 31.8864 -13.0651 88.4472 7.60046 137.304C74.3305 295.078 228.134 397.025 399.43 397.025C574.211 397.025 727.858 290.98 792.688 133.886C812.974 84.7311 789.617 28.5408 740.459 8.25045ZM759.34 120.124C700.081 263.71 559.6 360.947 399.43 360.947C242.659 360.947 101.901 267.647 40.826 123.25C27.9124 92.714 42.2474 57.3623 72.7839 44.4464C103.397 31.4967 138.638 45.7909 151.588 76.4019C175.626 133.235 217.539 178.589 269.169 207.13L229.651 263.755C223.951 271.926 225.95 283.17 234.12 288.873C242.288 294.573 253.537 292.572 259.235 284.404L302.337 222.643C319.794 229.383 338.061 234.301 356.87 237.293L339.803 264.491C334.506 272.931 337.053 284.065 345.493 289.359C353.938 294.655 365.069 292.103 370.361 283.666L397.357 240.644C424.877 240.853 451.467 237.007 477.19 229.289L451.378 263.137C445.336 271.058 446.861 282.379 454.783 288.421C462.713 294.467 474.032 292.93 480.067 285.015L547.704 196.321C591.673 167.311 627.075 125.36 648.171 74.2396C660.82 43.5925 696.042 28.952 726.692 41.5962C757.416 54.2813 772.02 89.3972 759.34 120.124Z" fill="#414042"/>
</svg>
