<svg width="182" height="800" viewBox="0 0 182 800" fill="none" xmlns="http://www.w3.org/2000/svg">
<path d="M56.1594 753.303C56.1594 772.531 72.1139 788.119 91.798 788.119C111.477 788.119 127.435 772.533 127.435 753.303V388.252H56.1626V753.303H56.1594Z" fill="#F59D40"/>
<path d="M12.05 90.8078C12.05 47.2188 47.3859 11.8812 90.9766 11.8812C134.566 11.8812 169.902 47.2172 169.902 90.8078V177.052C169.902 220.641 134.566 255.977 90.9766 255.977C47.3859 255.977 12.05 220.641 12.05 177.052V90.8078Z" fill="#C9D6D6"/>
<path d="M90.9766 0C40.9063 0 0.168755 40.7344 0.168755 90.8078V177.052C0.168755 223.094 34.6203 261.214 79.0953 267.056V376.373H44.2781V622.822H68.0406V447.661H113.911V753.302C113.911 765.948 103.622 776.237 90.975 776.237C78.3281 776.237 68.0375 765.948 68.0375 753.302V654.505H44.2766V753.302C44.2766 779.05 65.225 800 90.9766 800C116.725 800 137.675 779.052 137.675 753.302V376.369H102.858V267.052C147.331 261.211 181.783 223.089 181.783 177.047V90.8078C181.783 40.7344 141.047 0 90.9766 0ZM113.913 400.131V423.898H68.0422V400.131H113.913ZM158.02 177.05C158.02 214.017 127.945 244.094 90.9766 244.094C54.0078 244.094 23.9313 214.019 23.9313 177.05V90.8078C23.9313 53.8391 54.0078 23.7625 90.9766 23.7625C127.945 23.7625 158.02 53.8375 158.02 90.8078V177.05Z" fill="#311363"/>
<path d="M90.9766 220.331V196.569C101.739 196.569 110.495 187.812 110.495 177.05V90.8078H134.258V177.052C134.258 200.916 114.842 220.331 90.9766 220.331Z" fill="white"/>
</svg>
