<svg width="800" height="576" viewBox="0 0 800 576" fill="none" xmlns="http://www.w3.org/2000/svg">
<path d="M780.911 276.469V367.687C780.911 440.284 715.59 507.384 632.36 490.252C604.128 484.445 574.826 473.321 546.304 456.68C425.161 385.888 428.431 569.97 246.042 555.887C100.494 544.671 19.0864 439.014 19.0864 333.446V242.228C19.0864 347.799 100.504 453.443 246.042 464.666C428.434 478.749 425.161 294.667 546.304 365.46C574.826 382.101 604.128 393.227 632.36 399.032C697.392 412.403 751.477 374.38 772.035 322.475C777.796 307.949 780.911 292.354 780.911 276.469Z" fill="#F59D00"/>
<path d="M753.414 199.757C691.164 121.91 565.194 24.3532 323.354 19.4137C113.33 15.118 19.0864 128.629 19.0864 242.228C19.0864 347.799 100.504 453.443 246.042 464.666C428.434 478.749 425.161 294.668 546.304 365.46C574.826 382.101 604.128 393.227 632.36 399.032C697.392 412.403 751.477 374.38 772.035 322.475C777.796 307.947 780.911 292.352 780.911 276.467C780.911 250.392 772.48 223.608 753.414 199.757Z" fill="#FF7876"/>
<path d="M261.28 265.145C261.28 295.446 236.697 320.009 206.393 320.009C176.091 320.009 151.505 295.446 151.505 265.145C151.505 234.82 176.089 210.257 206.393 210.257C236.697 210.257 261.28 234.82 261.28 265.145Z" fill="#FFE49C"/>
<path d="M768.322 187.84C709.818 114.683 600.753 28.2927 405.207 5.74782C285.744 -8.02493 153.696 -0.9655 66.9449 84.03C23.7766 126.325 0 182.508 0 242.228V333.446C0 444.078 84.0107 562.544 244.571 574.914C329.805 581.508 378.483 550.176 432.572 498.584C468.729 464.094 488.645 445.091 536.687 473.166C704.049 570.815 800 459.521 800 367.687V276.469C799.997 244.409 789.044 213.762 768.322 187.84ZM738.506 211.677C769.686 250.685 768.271 300.65 742.158 337.808L589.917 95.7007C659.921 129.224 707.187 172.509 738.506 211.677ZM650.192 382.297L440.87 49.4175C473.208 55.0136 502.695 62.5184 529.579 71.4508L714.371 365.325C696.905 377.228 675.137 384.236 650.192 382.297ZM391.526 42.6558L596.468 368.568C553.673 352.013 535.503 330.807 497.379 330.028L313.997 38.4008C336.9 38.4924 364.858 39.9099 391.526 42.6558ZM93.6633 111.296C134.982 70.8146 195.307 46.6105 270.004 40.1466L458.028 339.152C398.236 368.804 368.838 455.001 247.51 445.636C116.531 435.535 38.1728 342.396 38.1728 242.228C38.1728 192.853 57.8801 146.354 93.6633 111.296ZM636.206 471.555C609.016 465.964 582.005 455.413 555.933 440.2C483.1 397.635 444.013 434.912 406.222 470.96C370.696 504.847 330.434 543.259 247.507 536.854C156.02 529.804 63.545 472.924 42.5779 375.683C89.3752 442.002 165.347 477.584 244.571 483.694C329.803 490.288 378.483 458.953 432.572 407.364C468.729 372.873 488.647 353.871 536.687 381.946C614.129 427.135 701.471 440.971 761.565 375.001C757.409 433.222 704.227 485.554 636.206 471.555Z" fill="#414042"/>
<path d="M206.395 339.096C247.184 339.096 280.366 305.921 280.366 265.145C280.366 224.356 247.184 191.173 206.395 191.173C165.606 191.173 132.421 224.358 132.421 265.145C132.421 305.921 165.606 339.096 206.395 339.096ZM206.395 229.344C226.136 229.344 242.194 245.404 242.194 265.142C242.194 284.87 226.136 300.92 206.395 300.92C186.655 300.92 170.594 284.87 170.594 265.142C170.594 245.404 186.655 229.344 206.395 229.344Z" fill="#414042"/>
</svg>
