<svg width="800" height="726" viewBox="0 0 800 726" fill="none" xmlns="http://www.w3.org/2000/svg">
<path d="M400 712.677C672.923 712.677 787.206 568.956 787.206 421.545C787.206 274.134 651.428 95.7734 400 154.634C148.572 95.7734 12.7937 274.134 12.7937 421.544C12.7937 568.953 127.076 712.677 400 712.677Z" fill="#FA0000"/>
<path opacity="0.15" d="M505.486 247.503C503.033 234.213 494.4 199.675 468.414 178.003C466.381 176.308 464.287 174.739 462.152 173.278C460.291 172.006 460.687 169.172 462.803 168.389C462.953 168.333 463.101 168.278 463.251 168.222C478.175 162.577 490.384 152.964 499.825 143.147C468.906 142.727 435.616 146.295 399.998 154.633C355.291 144.167 314.262 141.233 276.983 144.261C286.267 153.683 298.106 162.789 312.464 168.222C312.614 168.278 312.762 168.334 312.912 168.389C315.028 169.172 315.427 172.005 313.564 173.278C311.428 174.738 309.336 176.309 307.302 178.003C281.312 199.675 272.68 234.211 270.228 247.503C269.691 250.417 271.934 253.108 274.897 253.103C288.412 253.08 323.939 250.791 349.927 229.119C349.944 229.105 349.961 229.089 349.98 229.077C351.823 227.536 354.581 228.828 354.578 231.23V231.298C354.578 265.137 375.573 293.886 384.212 304.281C386.106 306.559 389.609 306.559 391.503 304.281C400.141 293.884 421.137 265.136 421.137 231.298V231.23C421.134 228.827 423.892 227.538 425.736 229.077C425.753 229.091 425.77 229.106 425.787 229.119C451.776 250.791 487.302 253.08 500.817 253.103C503.78 253.108 506.025 250.419 505.486 247.503Z" fill="black"/>
<path opacity="0.5" d="M439.891 672.955C166.967 672.955 52.6844 529.234 52.6844 381.823C52.6844 322.764 74.5 258.748 116.797 207C48.5078 262.706 13 346.144 13 421.506C13 568.917 127.284 712.637 400.206 712.637C563.573 712.637 670.08 661.133 729.278 588.175C666.475 639.434 571.684 672.955 439.891 672.955Z" fill="black"/>
<path d="M480.558 165.858C478.527 164.162 476.433 162.594 474.295 161.133C472.433 159.861 472.831 157.027 474.947 156.244C475.097 156.188 475.245 156.133 475.395 156.077C507.044 144.102 526.503 114.292 533.17 102.536C534.633 99.9578 533.392 96.6813 530.591 95.7188C517.811 91.3172 483.492 81.8563 451.844 93.8313C428.747 102.57 412.144 120.806 402.267 134.594C401.15 136.153 398.856 136.153 397.741 134.594C387.862 120.806 371.259 102.57 348.164 93.8313C316.516 81.8563 282.197 91.3203 269.417 95.7188C266.614 96.6828 265.377 99.9594 266.837 102.536C273.503 114.294 292.962 144.103 324.612 156.077C324.762 156.133 324.911 156.189 325.061 156.244C327.177 157.027 327.575 159.859 325.712 161.133C323.577 162.592 321.484 164.164 319.45 165.858C293.461 187.53 284.828 222.066 282.377 235.358C281.839 238.272 284.083 240.963 287.045 240.958C300.561 240.934 336.087 238.645 362.075 216.973C362.092 216.959 362.109 216.944 362.127 216.931C363.97 215.391 366.728 216.683 366.725 219.084C366.725 219.106 366.725 219.128 366.725 219.153C366.725 252.992 387.72 281.741 396.356 292.136C398.25 294.414 401.753 294.414 403.647 292.136C412.284 281.739 433.281 252.991 433.281 219.153C433.281 219.131 433.281 219.109 433.281 219.084C433.28 216.681 436.036 215.389 437.88 216.931C437.897 216.945 437.914 216.961 437.931 216.973C463.92 238.645 499.445 240.933 512.961 240.958C515.923 240.963 518.167 238.273 517.63 235.358C515.18 222.066 506.547 187.53 480.558 165.858Z" fill="#00A155"/>
<path opacity="0.27" d="M693.777 215.9C686.798 214.47 679.573 213.719 672.172 213.719C613.031 213.719 565.086 261.662 565.086 320.805C565.086 379.947 613.031 427.891 672.172 427.891C722.338 427.891 764.431 393.389 776.058 346.825C761.867 298.909 734.237 252.372 693.777 215.9Z" fill="white"/>
<path opacity="0.29" d="M575.225 577.784C604.233 577.784 627.748 554.269 627.748 525.261C627.748 496.253 604.233 472.737 575.225 472.737C546.217 472.737 522.702 496.253 522.702 525.261C522.702 554.269 546.217 577.784 575.225 577.784Z" fill="white"/>
<path d="M722.867 226.842C686.95 187.342 624.961 140.766 528.327 131.852C535.906 122.742 541.252 114.228 544.306 108.841C546.884 104.294 547.3 98.8813 545.448 93.9891C543.598 89.0984 539.702 85.3187 534.759 83.6187C520.266 78.6266 482.728 68.4641 447.32 81.8625C440.411 84.4781 434.048 87.825 428.208 91.6062C444.309 58.7781 469.645 36.3844 487.361 23.7391C493.111 19.6344 494.445 11.6453 490.341 5.89531C486.236 0.14375 478.245 -1.18906 472.495 2.91563C447.453 20.7922 409.086 55.7938 393.82 109.905C383.303 99 369.605 88.2641 352.692 81.8641C317.288 68.4703 279.748 78.6297 265.253 83.6203C260.309 85.3219 256.413 89.1047 254.564 93.9969C252.714 98.8891 253.131 104.303 255.711 108.847C258.764 114.231 264.105 122.745 271.686 131.853C175.047 140.766 113.058 187.344 77.1391 226.844C28.1141 280.747 0 351.714 0 421.544C0 503.798 33.9766 578.558 95.6703 632.053C166.145 693.166 271.383 725.469 400 725.469C528.617 725.469 633.855 693.166 704.33 632.055C766.023 578.559 800 503.798 800 421.544C800 351.716 771.886 280.75 722.867 226.842ZM343.636 105.792C363.748 113.402 378.503 129.703 387.341 142.038C387.508 142.269 387.698 142.478 387.878 142.7C387.448 147.772 387.212 152.969 387.212 158.308C387.212 165.373 392.939 171.102 400.006 171.102C407.073 171.102 412.8 165.373 412.8 158.308C412.8 152.147 413.173 146.2 413.839 140.444C422.783 128.33 437.116 113.08 456.377 105.794C478.18 97.5453 501.838 101.036 516.67 104.883C508.098 117.584 492.673 135.864 470.88 144.109L470.509 144.247C465.009 146.281 461.148 151.158 460.431 156.975C459.719 162.763 462.262 168.402 467.077 171.694C468.939 172.966 470.719 174.306 472.366 175.681C490.269 190.611 498.861 212.931 502.805 227.738C487.533 226.52 464.033 222.077 446.13 207.15C446.114 207.138 446.098 207.125 446.086 207.112C441.452 203.239 434.925 202.386 429.466 204.942C424.006 207.498 420.483 213.056 420.492 219.15C420.492 242.461 408.852 263.356 400.006 275.866C391.161 263.355 379.52 242.45 379.52 219.1C379.528 213.056 376.006 207.5 370.547 204.942C368.455 203.961 366.205 203.483 363.966 203.483C360.363 203.483 356.784 204.723 353.925 207.112C353.909 207.125 353.895 207.136 353.883 207.148C335.981 222.077 312.48 226.519 297.206 227.739C301.15 212.934 309.742 190.614 327.645 175.683C329.294 174.308 331.072 172.966 332.933 171.694C337.747 168.402 340.291 162.763 339.578 156.975C338.863 151.158 335 146.281 329.523 144.255L329.137 144.109C307.336 135.861 291.912 117.58 283.341 104.881C298.17 101.033 321.833 97.5422 343.636 105.792ZM687.569 612.723C621.811 669.742 522.372 699.883 400 699.883C277.628 699.883 178.189 669.744 112.431 612.723C56.4281 564.162 25.5859 496.267 25.5859 421.545C25.5859 358.002 51.275 293.308 96.0641 244.053C131.644 204.927 195.384 158.214 297.623 156.02C300.183 157.809 302.822 159.541 305.6 161.144C280.912 185.289 272.389 218.983 269.798 233.031C268.848 238.172 270.225 243.427 273.575 247.441C276.917 251.448 281.822 253.745 287.036 253.745H287.07C299.925 253.722 329.28 251.831 355.566 236.93C360.953 266.664 378.303 290.417 386.517 300.3C389.855 304.322 394.772 306.63 400 306.631H400.005C405.234 306.63 410.148 304.325 413.489 300.305C421.7 290.422 439.037 266.688 444.436 236.925C470.723 251.833 500.084 253.722 512.937 253.744H512.973C518.189 253.744 523.095 251.448 526.438 247.439C529.788 243.423 531.164 238.17 530.216 233.031C527.622 218.98 519.097 185.284 494.413 161.139C497.189 159.536 499.831 157.805 502.389 156.014C604.622 158.211 668.361 204.925 703.941 244.048C748.73 293.303 774.417 357.995 774.417 421.537C774.414 496.267 743.57 564.162 687.569 612.723Z" fill="black"/>
</svg>
