<svg width="29" height="64" viewBox="0 0 29 64" fill="none" xmlns="http://www.w3.org/2000/svg">
<path d="M28.2222 12.0691V49.9043C28.2222 57.6775 21.8939 63.996 14.1111 63.996C11.5201 63.996 9.08313 63.2929 6.993 62.0696C5.12437 60.9716 3.52538 59.4594 2.331 57.6582C2.32138 57.639 2.31175 57.61 2.2925 57.5908C2.15763 57.3981 2.03238 57.1959 1.91688 56.9837C1.87838 56.9259 1.8495 56.8683 1.811 56.8008C1.50275 56.2613 1.233 55.7027 1.00188 55.1151C0.963375 55.0286 0.924875 54.9321 0.895875 54.8358C0.674375 54.2484 0.491375 53.651 0.3565 53.025C0.318 52.8614 0.279375 52.6974 0.2505 52.5337C0.202375 52.3122 0.173375 52.0907 0.1445 51.869C0.115625 51.6956 0.08675 51.5224 0.077125 51.3394C0.04825 51.1082 0.028875 50.877 0.019375 50.6362C0.009625 50.3859 0 50.1451 0 49.9043V10.8748C0 4.88363 4.8835 0 10.8844 0C11.1349 0 11.3949 0.009625 11.6454 0.028875C11.944 0.048125 12.2426 0.077125 12.5411 0.12525C12.7626 0.163625 12.9841 0.202125 13.1961 0.250375C13.5044 0.317875 13.8126 0.39475 14.1112 0.491125C14.1594 0.510375 14.2075 0.52 14.2557 0.539375C14.4965 0.61625 14.747 0.712625 14.9878 0.809125C14.9974 0.809125 15.007 0.8185 15.0166 0.8185C15.0744 0.847625 15.1418 0.876375 15.1996 0.895625C15.2093 0.90525 15.2189 0.914875 15.2285 0.914875C15.3538 0.963125 15.479 1.02088 15.5945 1.0785C15.7294 1.146 15.8641 1.2135 15.999 1.281C16.0279 1.3 16.0568 1.30987 16.0858 1.32925C16.3169 1.45437 16.5384 1.58938 16.76 1.72413C16.7889 1.753 16.8274 1.77238 16.8563 1.79163C16.8659 1.801 16.8755 1.801 16.8851 1.81088C16.9237 1.83963 16.9719 1.8685 17.0104 1.89737C17.02 1.907 17.0392 1.91662 17.049 1.92625C17.0682 1.92625 17.0779 1.93587 17.0875 1.95512C17.1935 2.02237 17.2995 2.0995 17.3958 2.167C17.5306 2.273 17.6751 2.37887 17.8099 2.48487C17.8291 2.50387 17.8484 2.52325 17.8676 2.5425C17.8772 2.55238 17.8773 2.55238 17.8869 2.55238C17.9735 2.62925 18.0602 2.70638 18.147 2.78325C18.2915 2.90863 18.4262 3.034 18.5611 3.16863C18.59 3.1975 18.6189 3.23613 18.6574 3.27463C18.7536 3.37075 18.85 3.467 18.9366 3.56337C19.004 3.63087 19.0619 3.70775 19.1292 3.77525C19.1774 3.84275 19.2256 3.90062 19.2834 3.9585C19.3122 3.99712 19.3508 4.045 19.3796 4.08362C19.4568 4.18 19.5338 4.27625 19.6011 4.37262C19.6494 4.43025 19.6879 4.48813 19.7264 4.546C19.7553 4.59425 19.7939 4.64237 19.8324 4.69037C19.842 4.70962 19.8612 4.72888 19.8709 4.74825C19.8805 4.7675 19.8901 4.77713 19.9094 4.7965C19.9094 4.80613 19.919 4.82538 19.9286 4.835C19.9383 4.84463 19.9479 4.86387 19.9575 4.87362C20.0058 4.94112 20.0539 5.018 20.0924 5.09513C20.131 5.14338 20.1597 5.19125 20.1887 5.2395C20.2657 5.36488 20.3332 5.49963 20.4102 5.62488C20.4487 5.70175 20.4874 5.76925 20.5259 5.84637C20.5836 5.95225 20.6415 6.05825 20.6896 6.16425V6.17362H20.6992C20.6992 6.18325 20.7089 6.18325 20.7089 6.19287C20.9594 6.713 21.1616 7.26212 21.3254 7.82062C21.3831 8.02312 21.4314 8.21575 21.4795 8.40825C21.5276 8.6105 21.5662 8.813 21.6047 9.01525C21.6432 9.2175 21.6721 9.41975 21.6915 9.622C21.7204 9.82425 21.7396 10.0361 21.7493 10.2386C21.7589 10.4502 21.7685 10.6624 21.7685 10.8743V38.5571C21.7685 38.6823 21.7589 38.7979 21.7396 38.9136C21.6915 39.4046 21.6048 39.8863 21.4699 40.3391C21.1424 41.4853 20.5452 42.5256 19.765 43.3925C19.5049 43.6719 19.2256 43.932 18.9366 44.1535C18.7055 44.3654 18.4454 44.5484 18.1854 44.712C17.9831 44.8374 17.7809 44.9529 17.5785 45.0589C17.145 45.2804 16.6924 45.4634 16.2204 45.5984C15.9988 45.6656 15.7676 45.7235 15.5365 45.762C15.2957 45.8103 15.0549 45.8485 14.8045 45.8679C14.5734 45.897 14.3421 45.9065 14.111 45.9065H14.0627C9.815 45.9065 6.36662 42.4584 6.36662 38.2104V20.5551C6.36662 19.3896 7.301 18.4551 8.4665 18.4551C9.62238 18.4551 10.5662 19.3896 10.5662 20.5551V38.2108C10.5662 40.1371 12.1362 41.7074 14.0627 41.7074H14.111C14.3229 41.6977 14.5348 41.6785 14.737 41.6399H14.7659C14.8621 41.6206 14.9489 41.6013 15.0355 41.5724C16.4996 41.1486 17.5688 39.8003 17.5688 38.2108V10.8748C17.5688 10.1234 17.4435 9.39137 17.2027 8.71712C17.2027 8.68825 17.1931 8.66887 17.1835 8.64962C17.1835 8.64 17.1835 8.64 17.1739 8.64C17.1256 8.47638 17.0583 8.31262 16.9813 8.15837C16.9716 8.13912 16.962 8.11975 16.9524 8.1005C16.885 7.92725 16.7983 7.75388 16.6924 7.59025C16.0953 6.51138 15.1898 5.62525 14.111 5.028C13.1478 4.49812 12.0497 4.19975 10.8842 4.19975C7.20475 4.19975 4.20913 7.19525 4.20913 10.8748V49.9043C4.20913 55.0286 8.11012 59.2377 13.0996 59.7482C13.2441 59.7579 13.3983 59.7675 13.5428 59.7869C13.6969 59.7965 13.851 59.7965 14.0051 59.7965H14.1111C14.2459 59.7965 14.3808 59.7869 14.5156 59.7869C19.794 59.5748 24.0129 55.2309 24.0129 49.9043V12.0691H28.2222Z" fill="#EEDAAC"/>
<path opacity="0.07" d="M17.4679 38.2375V10.8996C17.4679 9.98499 17.283 9.11336 16.9481 8.31961C17.8007 9.44011 18.308 10.8366 18.308 12.3499V39.6877C18.308 41.6157 16.7371 43.1845 14.8049 43.1845C13.2109 43.1845 11.8615 42.1155 11.4394 40.659C12.0777 41.3216 12.9735 41.7342 13.9649 41.7342C15.897 41.7342 17.4679 40.1654 17.4679 38.2375Z" fill="#040000"/>
<path d="M20.5261 5.84675C20.5839 5.95262 20.6417 6.05863 20.6899 6.16463C20.6802 6.15475 20.6706 6.15475 20.6706 6.14537C19.1391 3.93962 16.8177 2.32125 14.1111 1.72413C13.3405 1.54088 12.5506 1.45438 11.732 1.45438C5.73125 1.45438 0.847625 6.32825 0.847625 12.3291V51.3587C0.847625 53.4295 1.29075 55.4042 2.1095 57.1766C2.16725 57.321 2.23475 57.456 2.2925 57.5908C2.16725 57.3981 2.042 57.2054 1.93613 57.0031C1.93613 57.0031 1.91688 56.9935 1.91688 56.9839C1.87838 56.926 1.8495 56.8684 1.811 56.8009C1.50275 56.2614 1.233 55.7029 1.00188 55.1152C0.963375 55.0287 0.924875 54.9323 0.895875 54.8359C0.674375 54.2485 0.491375 53.6511 0.3565 53.0251C0.318 52.8615 0.279375 52.6975 0.2505 52.5339C0.202375 52.3124 0.173375 52.0909 0.1445 51.8691C0.115625 51.6958 0.08675 51.5225 0.077125 51.3395C0.04825 51.1084 0.028875 50.8771 0.019375 50.6364C0.009625 50.3859 0 50.1451 0 49.9043V10.8748C0 4.88363 4.8835 0 10.8844 0C11.1349 0 11.3949 0.009625 11.6454 0.028875C11.944 0.048125 12.2426 0.077125 12.5411 0.12525C12.7626 0.163625 12.9841 0.202125 13.1961 0.250375C13.5044 0.317875 13.8126 0.39475 14.1112 0.491125C14.1594 0.510375 14.2075 0.52 14.2557 0.539375C14.4965 0.61625 14.747 0.712625 14.9878 0.809125C14.9974 0.809125 15.007 0.8185 15.0166 0.8185C15.0744 0.847625 15.1418 0.876375 15.1996 0.895625C15.2093 0.90525 15.2189 0.914875 15.2285 0.914875C15.3538 0.963125 15.479 1.02088 15.5945 1.0785C15.7294 1.146 15.8641 1.2135 15.999 1.281C16.0279 1.3 16.0568 1.30987 16.0858 1.32925C16.3169 1.45437 16.5384 1.58938 16.76 1.72413C16.7889 1.753 16.8274 1.77238 16.8563 1.79163C16.8659 1.801 16.8755 1.801 16.8851 1.81088C16.9237 1.83963 16.9719 1.8685 17.0104 1.89737C17.02 1.907 17.0392 1.91662 17.049 1.92625L17.0586 1.93588C17.0682 1.9455 17.0779 1.9455 17.0875 1.95512C17.1935 2.02237 17.2995 2.0995 17.3958 2.167C17.492 2.25375 17.5884 2.321 17.6847 2.39812C17.7329 2.427 17.7715 2.456 17.81 2.48487C17.8292 2.50387 17.8485 2.52325 17.8678 2.5425C17.8774 2.55238 17.8774 2.55238 17.887 2.55238C17.9736 2.62925 18.0604 2.70638 18.1471 2.78325C18.2916 2.90863 18.4264 3.034 18.5613 3.16863C18.5901 3.1975 18.619 3.23613 18.6575 3.27463C18.7537 3.37075 18.8405 3.467 18.9272 3.56337H18.9369C19.0042 3.63087 19.0621 3.70775 19.1295 3.77525C19.1487 3.80412 19.1776 3.83312 19.1873 3.862C19.2259 3.89087 19.2547 3.9295 19.2836 3.95837C19.3125 3.997 19.351 4.04487 19.3799 4.0835C19.457 4.17987 19.534 4.27612 19.6014 4.3725C19.6496 4.43012 19.6881 4.488 19.7266 4.54588C19.7555 4.59413 19.7941 4.64225 19.8326 4.69025C19.8422 4.7095 19.8615 4.72875 19.8711 4.74813C19.8807 4.76738 19.8904 4.777 19.9096 4.79637C19.9096 4.806 19.9192 4.82525 19.9289 4.83488C19.9385 4.8445 19.9481 4.86375 19.9578 4.8735C20.006 4.941 20.0541 5.01787 20.0926 5.095C20.1312 5.14325 20.16 5.19113 20.189 5.23938C20.266 5.36475 20.3335 5.4995 20.4105 5.62475C20.449 5.70213 20.4876 5.76962 20.5261 5.84675Z" fill="#FBE6B7"/>
<path d="M20.6899 6.17414V6.16476C20.6995 6.16476 20.6995 6.17414 20.6995 6.17414H20.6899Z" fill="#FBE6B7"/>
<g opacity="0.07">
<path d="M28.1131 12.0589V13.509H24.7529V51.3497C24.7529 56.8049 20.309 61.2425 14.8464 61.2425C10.8855 61.2425 7.45899 58.9092 5.87662 55.5459C7.66812 58.1112 10.644 59.7924 14.0064 59.7924C19.4689 59.7924 23.9129 55.3536 23.9129 49.8985V12.0589H28.1131Z" fill="#040000"/>
</g>
<g opacity="0.07">
<path d="M28.1131 12.0661V12.0587H23.9127V49.8986C23.9127 55.3184 19.525 59.7302 14.1111 59.7874V64C21.8895 64 28.2177 57.6775 28.2177 49.9061V12.0661H28.1131Z" fill="#040000"/>
<path d="M20.6898 6.17411V6.16473C20.6995 6.16473 20.6995 6.17411 20.6995 6.17411H20.6898Z" fill="#040000"/>
<path d="M21.7686 10.8747V38.5576C21.7686 38.6827 21.759 38.7984 21.7397 38.9141C21.6916 39.4051 21.6049 39.8867 21.47 40.3396C21.1425 41.4857 20.5454 42.5261 19.7651 43.393C19.5146 43.6627 19.2352 43.9226 18.9367 44.154C18.7056 44.3659 18.4455 44.5489 18.1855 44.7125C17.9832 44.8379 17.781 44.9534 17.5786 45.0594C17.1451 45.2809 16.6925 45.4639 16.2205 45.5989C15.9989 45.6661 15.7677 45.724 15.5366 45.7625C15.2959 45.8107 15.055 45.849 14.8046 45.8684C14.5735 45.8975 14.3422 45.907 14.1111 45.907V41.7075C14.323 41.6979 14.5349 41.6786 14.7371 41.64C15.2284 41.5245 15.6715 41.3124 16.0664 41.0236C16.1435 40.9657 16.2205 40.9079 16.2879 40.8406C16.365 40.7827 16.4324 40.7152 16.4997 40.6381C16.5671 40.5706 16.625 40.5034 16.6924 40.4262C16.8176 40.2819 16.9235 40.1182 17.0199 39.9446C17.0487 39.8964 17.0776 39.8482 17.1066 39.7906C17.1644 39.6749 17.2222 39.5499 17.2607 39.4149C17.2994 39.338 17.3185 39.2512 17.3475 39.155C17.3475 39.1451 17.3571 39.1357 17.3667 39.1164C17.386 39.0296 17.4052 38.9429 17.415 38.8466C17.4342 38.7599 17.4439 38.6827 17.4535 38.5961C17.4631 38.4804 17.4727 38.3554 17.4727 38.2396V10.9036C17.4727 9.98837 17.2801 9.11187 16.9526 8.32199C17.0394 8.44737 17.1164 8.58212 17.2031 8.71712C17.1935 8.68824 17.1839 8.66887 17.1742 8.63999C17.1165 8.47637 17.049 8.31262 16.9816 8.15837C16.972 8.13912 16.9624 8.11974 16.9527 8.10049C16.8757 7.92724 16.789 7.76349 16.6927 7.59024C16.0859 6.53062 15.1901 5.64449 14.1114 5.04724V0.491241C14.1595 0.510491 14.2076 0.520116 14.2559 0.539491C14.4966 0.616366 14.7471 0.712741 14.9879 0.809241C14.9975 0.809241 15.0071 0.818616 15.0167 0.818616C15.0745 0.847741 15.1419 0.876491 15.1997 0.895741C15.2094 0.905366 15.219 0.914991 15.2286 0.914991C15.3539 0.963241 15.4791 1.02099 15.5946 1.07862C15.7295 1.14612 15.8642 1.21362 15.9991 1.28112C16.028 1.30012 16.0569 1.30999 16.0859 1.32937C16.317 1.45449 16.5385 1.58949 16.7601 1.72424C16.789 1.75312 16.8275 1.77249 16.8564 1.79174C16.866 1.80112 16.8756 1.80112 16.8852 1.81099C16.9239 1.83974 16.972 1.86862 17.0105 1.89749C17.0201 1.90712 17.0394 1.91674 17.0491 1.92637L17.0587 1.93599C17.0684 1.94562 17.078 1.94562 17.0876 1.95524C17.1936 2.02249 17.2996 2.09962 17.3959 2.16712C17.4921 2.25387 17.5885 2.32112 17.6849 2.39824C17.7426 2.44649 17.8101 2.49462 17.8679 2.54262C17.8775 2.55249 17.8775 2.55249 17.8871 2.55249C17.9737 2.62937 18.0605 2.70649 18.1472 2.78337C18.2917 2.90874 18.4265 3.03412 18.5614 3.16874C18.5902 3.19762 18.6191 3.23624 18.6576 3.27474C18.7539 3.37087 18.8406 3.46712 18.9274 3.56349C19.0236 3.65987 19.1007 3.75637 19.1874 3.86212C19.2549 3.92962 19.303 3.99712 19.3607 4.07399C19.486 4.22799 19.6015 4.38224 19.7267 4.54599C19.7556 4.59424 19.7942 4.64237 19.8327 4.69037C19.8424 4.70962 19.8616 4.72887 19.8712 4.74824C19.8809 4.76749 19.8905 4.77712 19.9097 4.79649C19.9097 4.80612 19.9194 4.82537 19.929 4.83499C19.9386 4.84462 19.9482 4.86387 19.9579 4.87362C20.0061 4.94112 20.0542 5.01799 20.0927 5.09512C20.1314 5.14337 20.1601 5.19124 20.1891 5.23949C20.2661 5.36487 20.3336 5.49962 20.4106 5.62487C20.4491 5.70174 20.4877 5.76924 20.5262 5.84637C20.584 5.95224 20.6419 6.05824 20.69 6.16424C20.6804 6.15437 20.6707 6.15437 20.6707 6.14499C20.6707 6.15437 20.6804 6.16424 20.69 6.17362C20.9405 6.70349 21.1524 7.25249 21.3257 7.82062C21.3835 8.02312 21.4317 8.21574 21.4799 8.40824C21.528 8.61049 21.5666 8.81299 21.6051 9.01524C21.6436 9.21749 21.6725 9.41974 21.6919 9.62199C21.7207 9.82424 21.74 10.0361 21.7496 10.2386C21.7591 10.4507 21.7686 10.6629 21.7686 10.8747Z" fill="#040000"/>
</g>
</svg>
