<svg width="64" height="26" viewBox="0 0 64 26" fill="none" xmlns="http://www.w3.org/2000/svg">
<path d="M31.6185 0V19.755H1.46563C1.13613 19.755 0.832625 19.6596 0.598375 19.4949C0.320875 19.3041 0.130125 19.0179 0.043375 18.6884C0.017375 18.5843 0 18.4715 0 18.3587C0 18.2634 0.008625 18.1766 0.017375 18.0812L0.06075 17.7778L2.41088 1.67375C2.48025 1.18813 2.75775 0.745875 3.13925 0.44225C3.48625 0.16475 3.91112 0 4.34475 0H31.6185Z" fill="#B6BDD5"/>
<path d="M31.6195 18.3564V25.8088H9.67599C8.74586 25.8088 7.40361 25.3173 6.69336 24.7169L0.518364 19.4934L0.464739 19.4483C0.116364 19.1534 -0.0177611 18.8851 0.0458639 18.6884C0.111239 18.4838 0.390239 18.3564 0.864364 18.3564H31.6195Z" fill="#8798A7"/>
<path d="M64 18.3587C63.9914 18.4975 63.974 18.6363 63.9306 18.7663C63.8353 19.0698 63.6531 19.3212 63.4016 19.4947C63.1675 19.6595 62.8639 19.7549 62.5344 19.7549H31.6185V0H59.6554C60.089 0 60.5139 0.16475 60.8607 0.44225C61.2424 0.74575 61.5199 1.18813 61.5892 1.67375L61.728 2.61025L63.9827 18.0812C63.9914 18.1766 64 18.2634 64 18.3587Z" fill="#BE9CAC"/>
<path d="M63.4981 19.4484L63.4446 19.4935L57.269 24.717C56.5588 25.3174 55.217 25.8089 54.2869 25.8089H31.9589C31.8428 25.8089 31.7295 25.797 31.6195 25.7745V18.3909C31.7294 18.3684 31.8428 18.3565 31.9589 18.3565H63.0979C63.63 18.3565 63.9164 18.5171 63.9316 18.7675C63.9429 18.9545 63.8019 19.1912 63.4981 19.4484Z" fill="#98818A"/>
<path opacity="0.1" d="M62.0042 18.0222H1.23486V18.4661H62.0042V18.0222Z" fill="#F4F4F5"/>
<path opacity="0.1" d="M60.8607 0.44225H3.13925C3.48625 0.16475 3.91113 0 4.34475 0H59.6554C60.0889 0 60.5139 0.16475 60.8607 0.44225Z" fill="#040000"/>
<path opacity="0.03" d="M63.9316 18.7674C63.9429 18.9545 63.802 19.1912 63.4981 19.4484L63.4446 19.4935H0.518362L0.464737 19.4484C0.116362 19.1535 -0.0177634 18.8852 0.0458616 18.6885C0.0193616 18.5825 0.00411157 18.4709 0.00186157 18.3565H63.998C63.9947 18.5007 63.9721 18.6382 63.9316 18.7674Z" fill="#040000"/>
<g opacity="0.1">
<path d="M11.8807 7.93487H15.5837V6.6775H10.3285V13.9274H15.5837V12.6699H11.8807V10.9009H15.0374V9.64337H11.8807V7.93487Z" fill="white"/>
<path d="M21.4807 10.8054C21.6715 10.7446 21.8624 10.658 22.0357 10.5453C22.2092 10.4325 22.3652 10.2938 22.504 10.1378C22.6341 9.973 22.7381 9.79088 22.8249 9.59138C22.903 9.38325 22.9376 9.15775 22.9376 8.89763C22.9376 8.59413 22.8769 8.29938 22.7641 8.03038C22.6514 7.77025 22.478 7.53613 22.2525 7.328C22.105 7.198 21.9403 7.08525 21.7495 6.98988L21.7407 6.98125C21.6454 6.93788 21.5413 6.8945 21.4373 6.85113C21.1164 6.72975 20.7521 6.67763 20.3445 6.67763H17.2226V13.9275H18.7836V11.0395H19.9023L21.3419 13.7193L21.4546 13.9274H23.2671L21.4807 10.8054ZM20.2494 9.8515H18.7838V7.93488H20.2494C20.4489 7.93488 20.6223 7.96963 20.7784 8.03888C20.8911 8.07363 20.9865 8.13438 21.0732 8.20363C21.2814 8.37713 21.3768 8.61125 21.3768 8.89738C21.3768 9.18363 21.2814 9.409 21.0732 9.59113C20.865 9.76475 20.5875 9.8515 20.2494 9.8515Z" fill="white"/>
<path d="M27.9155 6.6775H26.6928L23.8744 13.7192L23.7876 13.9274H25.418L25.895 12.6439H28.7308L29.1296 13.7192L29.2076 13.9274H30.8293L27.9155 6.6775ZM27.3431 8.81087L28.3231 11.4559H26.3373L26.424 11.2391L27.2131 9.15787L27.3431 8.81087Z" fill="white"/>
<path d="M38.5474 10.9095C38.4694 10.6927 38.3392 10.502 38.1657 10.3459C38.1397 10.3111 38.105 10.2851 38.079 10.2591C37.9055 10.103 37.7061 9.98162 37.4632 9.89487C37.2205 9.80812 36.9256 9.73875 36.5527 9.68675L35.5987 9.55662C35.434 9.53937 35.2866 9.50462 35.1739 9.45262C35.0525 9.40925 34.9571 9.34862 34.8704 9.27912C34.8184 9.22712 34.7662 9.17512 34.7402 9.11437C34.723 9.08837 34.7056 9.06237 34.6969 9.03637C34.6622 8.94962 34.6535 8.85425 34.6535 8.7675C34.6535 8.516 34.7489 8.29925 34.9484 8.11712C35.1479 7.935 35.4514 7.84825 35.8676 7.84825C36.1365 7.84825 36.4052 7.87425 36.7001 7.935C36.995 7.987 37.2639 8.12575 37.5066 8.34262L38.4952 7.458C38.4171 7.38862 38.3391 7.32787 38.2611 7.27587C37.9836 7.06775 37.6887 6.91162 37.3592 6.80762C36.9517 6.6775 36.466 6.61687 35.9197 6.61687C35.4861 6.61687 35.0959 6.66887 34.749 6.773C34.4107 6.88575 34.116 7.03312 33.8731 7.23262C33.639 7.42337 33.4569 7.6575 33.3267 7.92637C33.1967 8.19525 33.136 8.49012 33.136 8.811C33.136 9.30537 33.2574 9.71287 33.5002 10.0164L33.5089 10.0251C33.5609 10.1031 33.6302 10.1725 33.7084 10.2419C33.8905 10.398 34.0986 10.528 34.3501 10.6235C34.5929 10.7189 34.8964 10.7969 35.252 10.8402L36.2059 10.979C36.4054 11.005 36.5615 11.031 36.6569 11.0657C36.735 11.0917 36.8042 11.1351 36.8736 11.1871C36.891 11.1957 36.9082 11.2045 36.9256 11.2219C37.0904 11.3692 37.1685 11.5687 37.1685 11.8202C37.1685 12.1151 37.0557 12.3405 36.8129 12.4966C36.5701 12.6527 36.2231 12.7307 35.7462 12.7307C35.382 12.7307 35.0351 12.6874 34.7056 12.592C34.3761 12.5052 34.0812 12.3492 33.8297 12.115L32.8497 13.0082L32.8237 13.0342C33.214 13.3899 33.6389 13.6412 34.1159 13.78C34.5929 13.9187 35.1305 13.9881 35.7375 13.9881C36.1537 13.9881 36.544 13.9447 36.9082 13.8406C37.2725 13.7452 37.5847 13.6065 37.8535 13.4157C38.1136 13.225 38.3217 12.9995 38.4692 12.7306C38.6254 12.4531 38.6946 12.1409 38.6946 11.794C38.6949 11.4645 38.6515 11.1696 38.5474 10.9095Z" fill="white"/>
<path d="M41.8341 7.93487H45.5371V6.6775H40.2731V13.9274H45.5371V12.6699H41.8341V10.9009H44.9821V9.64337H41.8341V7.93487Z" fill="white"/>
<path d="M51.4341 10.8054C51.625 10.7446 51.807 10.658 51.9891 10.5452C52.1626 10.4325 52.3186 10.2937 52.4487 10.1377C52.5875 9.973 52.6915 9.79087 52.7696 9.59137C52.8476 9.38325 52.891 9.15775 52.891 8.89762C52.891 8.59412 52.8304 8.29937 52.7176 8.03037C52.5962 7.77025 52.4315 7.54475 52.206 7.33662C52.2146 7.33662 52.206 7.328 52.206 7.328C51.9805 7.1285 51.7117 6.9725 51.3909 6.851C51.0614 6.72962 50.7057 6.6775 50.2981 6.6775H47.1675V13.9274H48.7285V11.0395H49.8472L51.2955 13.7192L51.4082 13.9274H53.2121L51.4341 10.8054ZM50.2027 9.8515H48.7285V7.93487H50.2027C50.5236 7.93487 50.7925 8.02162 50.9919 8.18637C51.0006 8.18637 51.0179 8.195 51.0266 8.20362C51.2261 8.37712 51.3301 8.61125 51.3301 8.89737C51.3301 9.18362 51.2261 9.409 51.0266 9.59112C50.8185 9.76475 50.541 9.8515 50.2027 9.8515Z" fill="white"/>
</g>
<path d="M38.3566 10.7014C38.3133 10.5714 38.2439 10.4499 38.1659 10.3459C38.0879 10.2331 37.9838 10.1377 37.8796 10.051C37.7149 9.89487 37.5068 9.7735 37.2639 9.67812C37.0298 9.59137 36.7263 9.522 36.362 9.47862L35.4081 9.3485C35.2346 9.3225 35.0873 9.28775 34.9745 9.24437C34.8878 9.201 34.8098 9.16637 34.7404 9.11425C34.7144 9.10562 34.697 9.08825 34.6796 9.07087C34.5929 8.99287 34.5409 8.91475 34.5063 8.82812C34.4715 8.74137 34.4543 8.646 34.4543 8.55062C34.4543 8.29912 34.5496 8.08237 34.7491 7.90025C34.9486 7.72675 35.2608 7.63137 35.677 7.63137C35.9371 7.63137 36.2146 7.666 36.5009 7.71812C36.7958 7.77887 37.0645 7.91762 37.3161 8.13437L38.2614 7.27575L38.2961 7.24975C37.9579 6.93762 37.5764 6.72075 37.1688 6.59062C36.7525 6.46925 36.2755 6.39987 35.7205 6.39987C35.2869 6.39987 34.8966 6.45187 34.5585 6.56462C34.2116 6.66875 33.9168 6.82475 33.6826 7.0155C33.4398 7.215 33.2578 7.44037 33.1276 7.70925C33.0063 7.97812 32.9369 8.273 32.9369 8.6025C32.9369 9.2095 33.1276 9.6865 33.5005 10.016L33.5091 10.0247C33.6913 10.1809 33.908 10.3109 34.1509 10.415C34.3938 10.5104 34.6973 10.5797 35.0614 10.6317L36.0154 10.7619C36.2148 10.7879 36.3623 10.8226 36.4576 10.8572C36.553 10.892 36.6484 10.9354 36.7265 11.0047C36.7873 11.0567 36.8306 11.1175 36.8739 11.1869C36.9433 11.3082 36.9779 11.447 36.9779 11.6117C36.9779 11.8979 36.8565 12.1234 36.6136 12.2795C36.3795 12.4356 36.0239 12.5136 35.5556 12.5136C35.1828 12.5136 34.8359 12.4702 34.5064 12.3835C34.1769 12.2967 33.8906 12.132 33.6391 11.9065L32.6245 12.8171C32.6939 12.8865 32.772 12.9472 32.85 13.008C33.1795 13.2681 33.5351 13.4589 33.9168 13.5716C34.3938 13.7104 34.9314 13.7797 35.5384 13.7797C35.9633 13.7797 36.3535 13.7277 36.7091 13.6324C37.0734 13.537 37.3856 13.3896 37.6544 13.2075C37.9233 13.0167 38.1226 12.7912 38.2788 12.5137C38.4261 12.2449 38.5043 11.9327 38.5043 11.5771C38.5041 11.2476 38.452 10.9615 38.3566 10.7014Z" fill="#987484"/>
<path d="M40.0824 6.46062V13.7192H45.3376V12.4531H41.6433V10.6926H44.7913V9.4265H41.6433V7.72675H45.3376V6.46062H40.0824Z" fill="#987484"/>
<path d="M51.2347 10.5886C51.4341 10.5279 51.6164 10.4412 51.7897 10.3285C51.9632 10.2157 52.1192 10.0857 52.258 9.92087C52.3881 9.76475 52.5009 9.58262 52.5789 9.3745C52.657 9.175 52.6916 8.94087 52.6916 8.68075C52.6916 8.37725 52.6309 8.09112 52.5181 7.82225C52.4401 7.64887 52.3447 7.48412 52.206 7.33662C52.2146 7.33662 52.206 7.328 52.206 7.328C52.1452 7.25862 52.0846 7.18925 52.0065 7.11987C51.781 6.92037 51.5122 6.75562 51.1914 6.64287C50.8705 6.5215 50.5062 6.46075 50.1074 6.46075H46.9767V13.7194H48.5377V10.8227H49.6564L49.7691 11.0395L51.2174 13.7192H53.0211L51.2347 10.5886ZM48.5377 7.72675H50.0034C50.3502 7.72675 50.6191 7.8135 50.8272 7.98687C50.8966 8.04762 50.9572 8.117 50.992 8.18637C51.0875 8.32512 51.1307 8.48987 51.1307 8.68062C51.1307 8.96687 51.0354 9.201 50.8272 9.37437C50.6191 9.5565 50.3502 9.64325 50.0034 9.64325H48.5377V7.72675Z" fill="#987484"/>
<path d="M9.99023 6.46062V13.7192H15.2455V12.4531H11.5512V10.6926H14.6992V9.4265H11.5512V7.72675H15.2456V6.46062H9.99023Z" fill="#7A7F88"/>
<path d="M21.1425 10.5886C21.342 10.5279 21.5241 10.4413 21.6975 10.3285C21.8796 10.2158 22.027 10.0858 22.1657 9.92088C22.2959 9.76475 22.4086 9.58263 22.4866 9.3745C22.5647 9.175 22.5994 8.94088 22.5994 8.68075C22.5994 8.37725 22.5474 8.09113 22.426 7.82225C22.3132 7.55338 22.1397 7.31938 21.9144 7.11988C21.8624 7.0765 21.8102 7.0245 21.7496 6.98988L21.7409 6.98125C21.5587 6.8425 21.342 6.72975 21.0991 6.643C20.7782 6.52163 20.414 6.46088 20.0151 6.46088H16.8845V13.7195H18.4455V10.8228H19.5641L19.6769 11.0395L21.1251 13.7193H22.9289L21.1425 10.5886ZM18.4455 7.72675H19.9111C20.258 7.72675 20.5269 7.8135 20.735 7.98688C20.7524 8.00425 20.7696 8.02163 20.7784 8.03888C20.9605 8.21238 21.0472 8.4205 21.0472 8.68063C21.0472 8.96688 20.9431 9.201 20.7351 9.37438C20.527 9.5565 20.2581 9.64325 19.9112 9.64325H18.4456V7.72675H18.4455Z" fill="#7A7F88"/>
<path d="M27.664 6.6775L27.5772 6.46075H26.3545L23.458 13.7194H25.0797L25.5654 12.4359H28.4011L28.4792 12.644L28.8695 13.7194H30.4911L27.664 6.6775ZM27.0049 8.60275L27.213 9.15775L27.9849 11.239H25.999L27.0049 8.60275Z" fill="#7A7F88"/>
</svg>
