<svg width="85" height="100" viewBox="0 0 85 100" fill="none" xmlns="http://www.w3.org/2000/svg">
<path d="M84.3658 9.76796V90.2226C84.3658 95.6029 79.9689 100 74.5885 100H9.76874C9.4707 100 9.17245 99.9851 8.88945 99.9553C8.5914 99.9404 8.3082 99.8957 8.02499 99.8361C7.87597 99.8213 7.72695 99.7914 7.59277 99.7467C6.77304 99.5678 5.9832 99.2697 5.26757 98.8822C5.25273 98.8822 5.25273 98.8674 5.25273 98.8674C5.208 98.8525 5.16328 98.8375 5.13339 98.8078C4.85019 98.6586 4.58183 98.4947 4.32851 98.3158C4.01562 98.1221 3.71738 97.8984 3.44921 97.6451C3.25546 97.4959 3.07656 97.3172 2.89785 97.1383C2.55507 96.8103 2.24199 96.4379 1.95878 96.0502C1.86933 95.931 1.77988 95.7969 1.69042 95.6775C1.48183 95.3795 1.28788 95.0666 1.13906 94.7535C0.990033 94.5 0.870697 94.2318 0.7664 93.9637C0.647064 93.6953 0.542767 93.4121 0.453314 93.1141C0.3789 92.9203 0.333978 92.7414 0.289447 92.5328C0.24472 92.3689 0.199994 92.19 0.170111 92.0111C0.140228 91.8619 0.125385 91.6982 0.095697 91.549C0.095697 91.5191 0.0808533 91.4892 0.0808533 91.4598C0.0361267 91.0572 0.00643921 90.6398 0.00643921 90.2228V35.0312L35.0318 0.00546265H74.5885C75.7361 0.00546265 76.8391 0.199017 77.8525 0.586517C80.6248 1.55546 82.8158 3.76132 83.7846 6.51855C83.9783 6.9957 84.1125 7.48749 84.202 7.99433C84.2615 8.27734 84.2914 8.57558 84.3213 8.85878C84.351 9.15663 84.3658 9.46992 84.3658 9.76796Z" fill="#C7D9A0"/>
<path d="M25.2551 35.0289C30.6307 35.0289 35.0289 30.6307 35.0289 25.2551V0L0 35.0289H25.2551Z" fill="#8DC686"/>
<path opacity="0.06" d="M84.3658 9.76796V90.2226C84.3658 95.6029 79.9689 100 74.5885 100H9.76875C9.47071 100 9.17246 99.9851 8.88946 99.9553C8.59141 99.9404 8.30821 99.8957 8.025 99.8361C7.87598 99.8213 7.72696 99.7914 7.59278 99.7467C6.77305 99.5678 5.98321 99.2697 5.26758 98.8822C5.25274 98.8822 5.25274 98.8674 5.25274 98.8674C5.20801 98.8525 5.16328 98.8375 5.1334 98.8078C4.8502 98.6586 4.58184 98.4947 4.32852 98.3158C4.01563 98.1221 3.71739 97.8984 3.44922 97.6451C3.25547 97.4959 3.07657 97.3172 2.89785 97.1383C2.55508 96.8103 2.242 96.4379 1.95879 96.0502C1.86934 95.931 1.77989 95.7969 1.69043 95.6775C1.48184 95.3795 1.28789 95.0666 1.13907 94.7535C0.990042 94.5 0.870706 94.2318 0.766409 93.9637C0.647073 93.6953 0.542776 93.4121 0.453323 93.114C0.378909 92.9203 0.333987 92.7414 0.289456 92.5328C0.24473 92.3689 0.200003 92.19 0.17012 92.0111L40.0846 52.0967L42.3799 49.8162L44.3174 47.8639H44.3322L84.202 7.99432C84.2615 8.27733 84.2914 8.57557 84.3213 8.85878C84.351 9.15663 84.3658 9.46991 84.3658 9.76796Z" fill="#040000"/>
<path opacity="0.1" d="M84.2764 87.4801V89.686C84.2764 95.0518 79.8795 99.4485 74.5139 99.4485H9.69414C7.54785 99.4485 5.55058 98.7481 3.94101 97.5555C3.10644 96.9592 2.39082 96.2289 1.77988 95.3944C1.04961 94.3807 0.498044 93.233 0.199997 91.9811C0.15527 91.8467 0.125583 91.6981 0.0957001 91.5489C0.0957001 91.519 0.0808563 91.4891 0.0808563 91.4596L0.572653 90.9828C0.632223 91.1317 0.691989 91.2809 0.751559 91.4299C2.28672 94.843 5.72968 97.2576 9.69433 97.2576H74.5142C79.8797 97.2576 84.2764 92.8608 84.2764 87.4801Z" fill="#040000"/>
</svg>
