<svg width="120" height="170" viewBox="0 0 120 170" fill="none" xmlns="http://www.w3.org/2000/svg">
<path d="M120 8.19382H0.0317078V170H120V8.19382Z" fill="#DC8744"/>
<path d="M111.616 14.0769H8.4192V162.212H111.616V14.0769Z" fill="#D5D6DB"/>
<path d="M111.616 8.19382H8.4192V156.329H111.616V8.19382Z" fill="#EBF0F3"/>
<path d="M111.617 27.0732H8.42085V28.5449H111.617V27.0732Z" fill="#E56353"/>
<path d="M111.617 25.3663H8.42085V25.9525H111.617V25.3663Z" fill="#E56353"/>
<path d="M111.617 38.5435H8.42085V39.1298H111.617V38.5435Z" fill="#D5D6DB"/>
<path d="M111.617 49.1298H8.42085V49.716H111.617V49.1298Z" fill="#D5D6DB"/>
<path d="M111.617 59.716H8.42085V60.3023H111.617V59.716Z" fill="#D5D6DB"/>
<path d="M111.617 70.3026H8.42085V70.8889H111.617V70.3026Z" fill="#D5D6DB"/>
<path d="M111.617 80.8872H8.42085V81.4734H111.617V80.8872Z" fill="#D5D6DB"/>
<path d="M111.617 91.4734H8.42085V92.0597H111.617V91.4734Z" fill="#D5D6DB"/>
<path d="M111.617 102.056H8.42085V102.643H111.617V102.056Z" fill="#D5D6DB"/>
<path d="M111.617 112.646H8.42085V113.233H111.617V112.646Z" fill="#D5D6DB"/>
<path d="M111.617 123.236H8.42085V123.823H111.617V123.236Z" fill="#D5D6DB"/>
<path d="M111.617 133.826H8.42085V134.412H111.617V133.826Z" fill="#D5D6DB"/>
<path d="M111.617 144.399H8.42085V144.985H111.617V144.399Z" fill="#D5D6DB"/>
<path d="M14.8881 17.2873C15.8209 17.2873 16.5771 16.4944 16.5771 15.5164C16.5771 14.5384 15.8209 13.7455 14.8881 13.7455C13.9553 13.7455 13.1991 14.5384 13.1991 15.5164C13.1991 16.4944 13.9553 17.2873 14.8881 17.2873Z" fill="#E1E6E9"/>
<path d="M15.4941 16.3883C13.1704 16.3883 11.3482 12.7881 11.3482 8.19417C11.3482 3.60023 13.1704 -7.62939e-06 15.4941 -7.62939e-06C17.8178 -7.62939e-06 19.6404 3.60023 19.6404 8.19382H18.2374C18.2374 4.23215 16.7905 1.47101 15.4941 1.47101C14.1983 1.47101 12.7515 4.23215 12.7515 8.19382C12.7515 12.1558 14.1983 14.917 15.4941 14.917V16.3883Z" fill="#64798A"/>
<path d="M24.7838 17.2873C25.7166 17.2873 26.4728 16.4944 26.4728 15.5164C26.4728 14.5384 25.7166 13.7455 24.7838 13.7455C23.851 13.7455 23.0948 14.5384 23.0948 15.5164C23.0948 16.4944 23.851 17.2873 24.7838 17.2873Z" fill="#E1E6E9"/>
<path d="M25.3882 16.3883C23.0642 16.3883 21.2422 12.7881 21.2422 8.19417C21.2422 3.60023 23.0642 0.000335693 25.3882 0.000335693C27.7118 0.000335693 29.5341 3.60057 29.5341 8.19417H28.1311C28.1311 4.23249 26.6843 1.47135 25.3885 1.47135C24.0921 1.47135 22.6452 4.23249 22.6452 8.19417C22.6452 12.1562 24.0921 14.9173 25.3885 14.9173L25.3882 16.3883Z" fill="#64798A"/>
<path d="M34.6746 17.2873C35.6074 17.2873 36.3636 16.4944 36.3636 15.5164C36.3636 14.5384 35.6074 13.7455 34.6746 13.7455C33.7418 13.7455 32.9856 14.5384 32.9856 15.5164C32.9856 16.4944 33.7418 17.2873 34.6746 17.2873Z" fill="#E1E6E9"/>
<path d="M35.2816 16.3883C32.9579 16.3883 31.1356 12.7881 31.1356 8.19417C31.1356 3.60023 32.9579 0.000335693 35.2816 0.000335693C37.6049 0.000335693 39.4275 3.60057 39.4275 8.19417H38.0245C38.0245 4.23249 36.578 1.47135 35.2819 1.47135C33.9855 1.47135 32.5389 4.23249 32.5389 8.19417C32.5389 12.1562 33.9855 14.9173 35.2819 14.9173L35.2816 16.3883Z" fill="#64798A"/>
<path d="M44.5686 17.2873C45.5014 17.2873 46.2576 16.4944 46.2576 15.5164C46.2576 14.5384 45.5014 13.7455 44.5686 13.7455C43.6358 13.7455 42.8796 14.5384 42.8796 15.5164C42.8796 16.4944 43.6358 17.2873 44.5686 17.2873Z" fill="#E1E6E9"/>
<path d="M45.1753 16.3883C42.8516 16.3883 41.0294 12.7881 41.0294 8.19417C41.0294 3.60023 42.8513 0.000335693 45.1753 0.000335693C47.4993 0.000335693 49.3215 3.60057 49.3215 8.19417H47.9185C47.9185 4.23249 46.4717 1.47135 45.1753 1.47135C43.8795 1.47135 42.4327 4.23249 42.4327 8.19417C42.4327 12.1562 43.8795 14.9173 45.1753 14.9173V16.3883Z" fill="#64798A"/>
<path d="M54.4627 17.2873C55.3955 17.2873 56.1517 16.4944 56.1517 15.5164C56.1517 14.5384 55.3955 13.7455 54.4627 13.7455C53.5299 13.7455 52.7737 14.5384 52.7737 15.5164C52.7737 16.4944 53.5299 17.2873 54.4627 17.2873Z" fill="#E1E6E9"/>
<path d="M55.069 16.3883C52.7453 16.3883 50.9231 12.7881 50.9231 8.19417C50.9231 3.60023 52.7453 0.000335693 55.069 0.000335693C57.3927 0.000335693 59.2149 3.60057 59.2149 8.19417H57.8123C57.8123 4.23249 56.3651 1.47135 55.0693 1.47135C53.7732 1.47135 52.3261 4.23249 52.3261 8.19417C52.3261 12.1562 53.7732 14.9173 55.0693 14.9173V16.3883H55.069Z" fill="#64798A"/>
<path d="M64.3567 17.2873C65.2895 17.2873 66.0457 16.4944 66.0457 15.5164C66.0457 14.5384 65.2895 13.7455 64.3567 13.7455C63.4239 13.7455 62.6678 14.5384 62.6678 15.5164C62.6678 16.4944 63.4239 17.2873 64.3567 17.2873Z" fill="#E1E6E9"/>
<path d="M64.9627 16.3883C62.639 16.3883 60.8168 12.7881 60.8168 8.19417C60.8168 3.60023 62.639 0.000335693 64.9627 0.000335693C67.286 0.000335693 69.1086 3.60057 69.1086 8.19417H67.7056C67.7056 4.23249 66.2591 1.47135 64.963 1.47135C63.6669 1.47135 62.2201 4.23249 62.2201 8.19417C62.2201 12.1562 63.6669 14.9173 64.963 14.9173V16.3883H64.9627Z" fill="#64798A"/>
<path d="M74.2541 17.2873C75.1869 17.2873 75.9431 16.4944 75.9431 15.5164C75.9431 14.5384 75.1869 13.7455 74.2541 13.7455C73.3213 13.7455 72.5651 14.5384 72.5651 15.5164C72.5651 16.4944 73.3213 17.2873 74.2541 17.2873Z" fill="#E1E6E9"/>
<path d="M74.8561 16.3883C72.5328 16.3883 70.7102 12.7881 70.7102 8.19417C70.7102 3.60023 72.5324 0.000335693 74.8561 0.000335693C77.1801 0.000335693 79.0024 3.60057 79.0024 8.19417H77.5994C77.5994 4.23249 76.1525 1.47135 74.8561 1.47135C73.5603 1.47135 72.1135 4.23249 72.1135 8.19417C72.1135 12.1562 73.5603 14.9173 74.8561 14.9173V16.3883Z" fill="#64798A"/>
<path d="M84.1514 17.2873C85.0842 17.2873 85.8404 16.4944 85.8404 15.5164C85.8404 14.5384 85.0842 13.7455 84.1514 13.7455C83.2186 13.7455 82.4624 14.5384 82.4624 15.5164C82.4624 16.4944 83.2186 17.2873 84.1514 17.2873Z" fill="#E1E6E9"/>
<path d="M84.7502 16.3883C82.4265 16.3883 80.6042 12.7881 80.6042 8.19417C80.6042 3.60023 82.4262 0.000335693 84.7502 0.000335693C87.0738 0.000335693 88.8957 3.60057 88.8957 8.19417H87.4931C87.4931 4.23249 86.0459 1.47135 84.7502 1.47135C83.4541 1.47135 82.0075 4.23249 82.0075 8.19417C82.0075 12.1562 83.4541 14.9173 84.7502 14.9173V16.3883Z" fill="#64798A"/>
<path d="M94.0319 17.2873C94.9647 17.2873 95.7209 16.4944 95.7209 15.5164C95.7209 14.5384 94.9647 13.7455 94.0319 13.7455C93.0992 13.7455 92.343 14.5384 92.343 15.5164C92.343 16.4944 93.0992 17.2873 94.0319 17.2873Z" fill="#E1E6E9"/>
<path d="M94.6439 16.3883C92.3202 16.3883 90.498 12.7881 90.498 8.19417C90.498 3.60023 92.3202 0.000335693 94.6439 0.000335693C96.9675 0.000335693 98.7898 3.60057 98.7898 8.19417H97.3865C97.3865 4.23249 95.94 1.47135 94.6439 1.47135C93.3478 1.47135 91.9009 4.23249 91.9009 8.19417C91.9009 12.1562 93.3478 14.9173 94.6439 14.9173V16.3883Z" fill="#64798A"/>
<path d="M103.929 17.2873C104.862 17.2873 105.618 16.4944 105.618 15.5164C105.618 14.5384 104.862 13.7455 103.929 13.7455C102.997 13.7455 102.24 14.5384 102.24 15.5164C102.24 16.4944 102.997 17.2873 103.929 17.2873Z" fill="#E1E6E9"/>
<path d="M104.538 16.3883C102.214 16.3883 100.392 12.7881 100.392 8.19417C100.392 3.60023 102.214 0.000335693 104.538 0.000335693C106.861 0.000335693 108.684 3.60057 108.684 8.19417H107.281C107.281 4.23249 105.834 1.47135 104.538 1.47135C103.242 1.47135 101.795 4.23249 101.795 8.19417C101.795 12.1562 103.242 14.9173 104.538 14.9173L104.538 16.3883Z" fill="#64798A"/>
</svg>
