<svg width="95" height="68" viewBox="0 0 95 68" fill="none" xmlns="http://www.w3.org/2000/svg">
<path d="M61.5068 0H-6V60.7143H81.6008V10.9256L61.5068 0Z" fill="#E1E6E9"/>
<path d="M61.5068 10.9256H81.6008L61.5068 0V10.9256Z" fill="#D5D6DB"/>
<path d="M72.6909 16.8731H2.90408V18.0873H72.6909V16.8731Z" fill="#D5D6DB"/>
<path d="M72.6909 22.4641H2.90408V23.6782H72.6909V22.4641Z" fill="#D5D6DB"/>
<path d="M72.6909 28.0557H2.90408V29.2698H72.6909V28.0557Z" fill="#D5D6DB"/>
<path d="M49.8021 33.6458H2.90408V34.86H49.8021V33.6458Z" fill="#D5D6DB"/>
<path d="M72.6909 39.2417H2.90408V40.4558H72.6909V39.2417Z" fill="#D5D6DB"/>
<path d="M72.6909 44.8304H2.90408V46.0446H72.6909V44.8304Z" fill="#D5D6DB"/>
<path d="M72.6909 50.4191H2.90408V51.6332H72.6909V50.4191Z" fill="#D5D6DB"/>
<path d="M37.7962 56.0149H2.90408V57.2291H37.7962V56.0149Z" fill="#D5D6DB"/>
<path d="M74.9065 7.28558H7.39944V68H95V18.2112L74.9065 7.28558Z" fill="#EBF0F3"/>
<path d="M74.9065 18.2112H95L74.9065 7.28558V18.2112Z" fill="#E1E6E9"/>
<path d="M86.0947 24.1612H16.3079V25.3754H86.0947V24.1612Z" fill="#E1E6E9"/>
<path d="M86.0947 29.75H16.3079V30.9641H86.0947V29.75Z" fill="#E1E6E9"/>
<path d="M86.0947 35.3409H16.3079V36.555H86.0947V35.3409Z" fill="#E1E6E9"/>
<path d="M63.2059 40.9331H16.3079V42.1472H63.2059V40.9331Z" fill="#E1E6E9"/>
<path d="M86.0947 46.5233H16.3079V47.7374H86.0947V46.5233Z" fill="#E1E6E9"/>
<path d="M86.0947 52.1191H16.3079V53.3332H86.0947V52.1191Z" fill="#E1E6E9"/>
<path d="M86.0947 57.7079H16.3079V58.922H86.0947V57.7079Z" fill="#E1E6E9"/>
<path d="M51.2 63.2966H16.3079V64.5108H51.2V63.2966Z" fill="#E1E6E9"/>
</svg>
