<!DOCTYPE svg PUBLIC "-//W3C//DTD SVG 1.1//EN" "http://www.w3.org/Graphics/SVG/1.1/DTD/svg11.dtd">
<!-- Uploaded to: SVG Repo, www.svgrepo.com, Transformed by: SVG Repo Mixer Tools -->
<svg version="1.1" id="Layer_1" xmlns="http://www.w3.org/2000/svg" xmlns:xlink="http://www.w3.org/1999/xlink" viewBox="0 0 491.52 491.52" xml:space="preserve" width="95px" height="95px" fill="#000000">
<g id="SVGRepo_bgCarrier" stroke-width="0"/>
<g id="SVGRepo_tracerCarrier" stroke-linecap="round" stroke-linejoin="round"/>
<g id="SVGRepo_iconCarrier"> <polygon style="fill:#E1E6E9;" points="312.6,0 47.283,0 47.283,438.857 391.574,438.857 391.574,78.973 "/> <g> <polygon style="fill:#D5D6DB;" points="312.6,78.973 391.574,78.973 312.6,0 "/> <rect x="82.278" y="121.963" style="fill:#D5D6DB;" width="274.278" height="8.776"/> <rect x="82.278" y="162.376" style="fill:#D5D6DB;" width="274.278" height="8.776"/> <rect x="82.278" y="202.793" style="fill:#D5D6DB;" width="274.278" height="8.776"/> <rect x="82.278" y="243.2" style="fill:#D5D6DB;" width="184.32" height="8.776"/> <rect x="82.278" y="283.648" style="fill:#D5D6DB;" width="274.278" height="8.776"/> <rect x="82.278" y="324.045" style="fill:#D5D6DB;" width="274.278" height="8.776"/> <rect x="82.278" y="364.441" style="fill:#D5D6DB;" width="274.278" height="8.776"/> <rect x="82.278" y="404.889" style="fill:#D5D6DB;" width="137.134" height="8.776"/> </g> <polygon style="fill:#EBF0F3;" points="365.264,52.662 99.946,52.662 99.946,491.52 444.236,491.52 444.236,131.635 "/> <g> <polygon style="fill:#E1E6E9;" points="365.264,131.635 444.236,131.635 365.264,52.662 "/> <rect x="134.958" y="174.643" style="fill:#E1E6E9;" width="274.278" height="8.776"/> <rect x="134.958" y="215.04" style="fill:#E1E6E9;" width="274.278" height="8.776"/> <rect x="134.958" y="255.452" style="fill:#E1E6E9;" width="274.278" height="8.776"/> <rect x="134.958" y="295.874" style="fill:#E1E6E9;" width="184.32" height="8.776"/> <rect x="134.958" y="336.281" style="fill:#E1E6E9;" width="274.278" height="8.776"/> <rect x="134.958" y="376.729" style="fill:#E1E6E9;" width="274.278" height="8.776"/> <rect x="134.958" y="417.126" style="fill:#E1E6E9;" width="274.278" height="8.776"/> <rect x="134.958" y="457.523" style="fill:#E1E6E9;" width="137.134" height="8.776"/> </g> </g>
</svg>